<?xml version="1.0" encoding="utf-8"?>
<!-- Generator: Adobe Illustrator 27.5.0, SVG Export Plug-In . SVG Version: 6.00 Build 0)  -->
<svg version="1.1" xmlns="http://www.w3.org/2000/svg" xmlns:xlink="http://www.w3.org/1999/xlink" x="0px" y="0px"
	 viewBox="0 0 500 500" style="enable-background:new 0 0 500 500;" xml:space="preserve">
<g id="Background_Complete">
	<g>
		<rect y="382.398" style="fill:#EBEBEB;" width="500" height="0.25"/>
		<rect x="416.779" y="398.494" style="fill:#EBEBEB;" width="33.122" height="0.25"/>
		<rect x="322.527" y="401.208" style="fill:#EBEBEB;" width="8.693" height="0.25"/>
		<rect x="396.586" y="389.208" style="fill:#EBEBEB;" width="19.192" height="0.25"/>
		<rect x="52.459" y="390.888" style="fill:#EBEBEB;" width="43.193" height="0.25"/>
		<rect x="104.556" y="390.888" style="fill:#EBEBEB;" width="6.333" height="0.25"/>
		<rect x="131.471" y="395.111" style="fill:#EBEBEB;" width="93.676" height="0.25"/>
		<path style="fill:#EBEBEB;" d="M237.014,337.8H43.915c-3.147,0-5.708-2.561-5.708-5.708V60.66c0-3.147,2.561-5.708,5.708-5.708
			h193.099c3.146,0,5.707,2.561,5.707,5.708v271.432C242.721,335.239,240.16,337.8,237.014,337.8z M43.915,55.203
			c-3.01,0-5.458,2.448-5.458,5.458v271.432c0,3.01,2.448,5.458,5.458,5.458h193.099c3.009,0,5.457-2.448,5.457-5.458V60.66
			c0-3.009-2.448-5.458-5.457-5.458H43.915z"/>
		<path style="fill:#EBEBEB;" d="M453.31,337.8H260.212c-3.147,0-5.707-2.561-5.707-5.708V60.66c0-3.147,2.561-5.708,5.707-5.708
			H453.31c3.148,0,5.708,2.561,5.708,5.708v271.432C459.019,335.239,456.458,337.8,453.31,337.8z M260.212,55.203
			c-3.009,0-5.457,2.448-5.457,5.458v271.432c0,3.01,2.448,5.458,5.457,5.458H453.31c3.01,0,5.458-2.448,5.458-5.458V60.66
			c0-3.009-2.448-5.458-5.458-5.458H260.212z"/>
	</g>
	<g>
		
			<ellipse transform="matrix(0.3596 -0.9331 0.9331 0.3596 70.5527 428.0433)" style="fill:#FAFAFA;" cx="347.133" cy="162.62" rx="41.546" ry="41.546"/>
		<path style="fill:#F5F5F5;" d="M421.285,154.429c0-3.737-3.03-6.767-6.767-6.767c-0.676,0-1.327,0.102-1.943,0.286
			c0.099-0.679,0.152-1.372,0.152-2.078c0-7.914-6.416-14.33-14.33-14.33c-0.902,0-1.784,0.087-2.64,0.247
			c-2.203-3.605-6.162-6.019-10.695-6.019c-6.862,0-12.428,5.513-12.53,12.351c-0.07-0.001-0.138-0.011-0.209-0.011
			c-6.376,0-11.544,5.168-11.544,11.544c0,6.376,5.168,11.544,11.544,11.544h42.394l-0.009-0.01
			C418.356,161.085,421.285,158.102,421.285,154.429z"/>
		<path style="fill:#F5F5F5;" d="M330.947,197.682c0-3.737-3.03-6.767-6.767-6.767c-0.676,0-1.327,0.102-1.943,0.286
			c0.099-0.678,0.152-1.372,0.152-2.078c0-7.915-6.416-14.33-14.33-14.33c-0.902,0-1.784,0.087-2.64,0.247
			c-2.203-3.605-6.162-6.019-10.695-6.019c-6.862,0-12.428,5.513-12.53,12.351c-0.07-0.001-0.138-0.011-0.209-0.011
			c-6.376,0-11.544,5.168-11.544,11.544c0,6.376,5.168,11.544,11.544,11.544h42.394l-0.009-0.01
			C328.019,204.338,330.947,201.355,330.947,197.682z"/>
		<path style="fill:#F5F5F5;" d="M186.661,234.843c0-3.737-3.03-6.767-6.767-6.767c-0.676,0-1.327,0.102-1.943,0.286
			c0.099-0.679,0.152-1.372,0.152-2.078c0-7.914-6.416-14.33-14.33-14.33c-0.902,0-1.784,0.087-2.64,0.247
			c-2.202-3.605-6.162-6.019-10.695-6.019c-6.862,0-12.428,5.513-12.53,12.351c-0.07-0.001-0.138-0.011-0.209-0.011
			c-6.375,0-11.544,5.168-11.544,11.544c0,6.376,5.168,11.544,11.544,11.544h42.394l-0.009-0.01
			C183.733,241.499,186.661,238.516,186.661,234.843z"/>
		<path style="fill:#F5F5F5;" d="M417.374,236.767c0-2.259-1.831-4.09-4.09-4.09c-0.408,0-0.802,0.062-1.174,0.173
			c0.06-0.41,0.092-0.829,0.092-1.256c0-4.784-3.878-8.661-8.661-8.661c-0.545,0-1.078,0.053-1.596,0.149
			c-1.331-2.179-3.724-3.638-6.464-3.638c-4.147,0-7.512,3.332-7.573,7.465c-0.042-0.001-0.084-0.006-0.126-0.006
			c-3.854,0-6.977,3.124-6.977,6.977c0,3.853,3.124,6.977,6.977,6.977h25.623l-0.005-0.006
			C415.604,240.79,417.374,238.987,417.374,236.767z"/>
		<path style="fill:#EBEBEB;" d="M251.519,114.282c0-2.259-1.831-4.09-4.09-4.09c-0.408,0-0.802,0.062-1.174,0.173
			c0.06-0.41,0.092-0.829,0.092-1.256c0-4.783-3.878-8.661-8.661-8.661c-0.545,0-1.078,0.053-1.596,0.149
			c-1.331-2.179-3.724-3.638-6.464-3.638c-4.147,0-7.512,3.332-7.573,7.465c-0.042-0.001-0.083-0.006-0.126-0.006
			c-3.853,0-6.977,3.124-6.977,6.977c0,3.854,3.124,6.977,6.977,6.977h25.623l-0.005-0.006
			C249.749,118.305,251.519,116.503,251.519,114.282z"/>
		<path style="fill:#EBEBEB;" d="M107.105,116.528c0-2.259-1.831-4.09-4.09-4.09c-0.408,0-0.802,0.062-1.174,0.173
			c0.06-0.41,0.092-0.829,0.092-1.256c0-4.784-3.878-8.661-8.661-8.661c-0.545,0-1.078,0.053-1.596,0.149
			c-1.331-2.179-3.724-3.638-6.464-3.638c-4.147,0-7.511,3.332-7.573,7.465c-0.042-0.001-0.083-0.006-0.126-0.006
			c-3.854,0-6.977,3.124-6.977,6.977c0,3.854,3.124,6.977,6.977,6.977h25.623l-0.005-0.006
			C105.336,120.55,107.105,118.748,107.105,116.528z"/>
		<path style="fill:#F0F0F0;" d="M436.845,382.505c-10.993-13.783-105.562-131.87-118.736-131.895
			c-13.99-0.027-40.615,32.67-40.615,32.67s-46.331-57.424-66.187-55.864c-18.786,1.476-140.51,140.152-153.57,155.089H436.845z"/>
	</g>
</g>
<g id="Background_Simple" style="display:none;">
	<g style="display:inline;">
		<path style="fill:#407BFF;" d="M407.387,134.233c-19.911-26.607-54.454-35.814-86.293-33.356
			c-25.121,1.939-47.078,15.42-71.52,20.094c-25.265,4.832-46.842-6.144-70.916-11.485c-22.367-4.962-45.414,0.486-64.58,12.601
			c-31.45,19.881-54.327,57.107-54.285,94.75c0.059,52.603,47.329,71.642,84.443,98.081c34.546,24.61,70.382,71.208,117.422,66.54
			c18.234-1.81,30.296-8.786,39.036-18.652c13.579-15.329,17.473-34.523,24.255-53.034c6.458-17.627,17.368-33.637,31.545-45.96
			c20.589-17.897,46.836-28.663,58.982-54.542C426.736,185.279,423.212,155.381,407.387,134.233z"/>
		<path style="opacity:0.9;fill:#FFFFFF;" d="M407.387,134.233c-19.911-26.607-54.454-35.814-86.293-33.356
			c-25.121,1.939-47.078,15.42-71.52,20.094c-25.265,4.832-46.842-6.144-70.916-11.485c-22.367-4.962-45.414,0.486-64.58,12.601
			c-31.45,19.881-54.327,57.107-54.285,94.75c0.059,52.603,47.329,71.642,84.443,98.081c34.546,24.61,70.382,71.208,117.422,66.54
			c18.234-1.81,30.296-8.786,39.036-18.652c13.579-15.329,17.473-34.523,24.255-53.034c6.458-17.627,17.368-33.637,31.545-45.96
			c20.589-17.897,46.836-28.663,58.982-54.542C426.736,185.279,423.212,155.381,407.387,134.233z"/>
	</g>
</g>
<g id="Shadow_1_">
	<ellipse id="_x3C_Path_x3E__359_" style="fill:#F5F5F5;" cx="250" cy="416.238" rx="193.889" ry="11.323"/>
</g>
<g id="Trees">
	<g>
		<g>
			<g>
				<g>
					<path style="fill:#407BFF;" d="M385.118,371.663c0,0-6.114-85.122,27.648-170.266l-4.07-3.636c0,0-36.95,63.565-40.295,175.07
						L385.118,371.663z"/>
				</g>
				<g style="opacity:0.5;enable-background:new    ;">
					<path style="fill:#FFFFFF;" d="M385.118,371.663c0,0-6.114-85.122,27.648-170.266l-4.07-3.636c0,0-36.95,63.565-40.295,175.07
						L385.118,371.663z"/>
				</g>
			</g>
			<g>
				<path style="fill:#407BFF;" d="M421.896,179.064c10.547-5.872,24.697,5.708,25.555,22.267c0,0-1.659-1.198-4.464-2.531
					c-0.482-4.184-0.97-7.893-0.97-7.893v7.449c-0.862-0.381-1.807-0.762-2.834-1.122l-0.408-4.039l-0.598,3.7
					c-1.32-0.422-2.755-0.793-4.275-1.079l-1.039-11.773l-1.802,11.364c-1.439-0.144-2.937-0.196-4.484-0.125l-0.58-8.002
					l-0.594,8.075c-1.254,0.108-2.537,0.308-3.839,0.599l-0.526-11.911c0,0-0.439,6.645-0.921,12.27
					c-3.311,0.923-6.729,2.507-10.139,5.019v-1.462C409.98,199.869,412.269,184.423,421.896,179.064z"/>
				<path style="fill:#407BFF;" d="M408.361,172.784c-7.344-9.581-24.931-4.58-32.301,10.273c0,0,1.999-0.44,5.103-0.548
					c2.106-3.647,4.028-6.857,4.028-6.857l-2.961,6.835c0.943-0.007,1.961,0.02,3.046,0.097l1.98-3.544l-0.922,3.632
					c1.379,0.138,2.843,0.368,4.351,0.709l5.633-10.39l-2.864,11.144c1.378,0.44,2.773,0.988,4.164,1.668l3.713-7.112l-2.665,7.645
					c1.108,0.598,2.206,1.291,3.285,2.075l5.217-10.72c0,0-2.238,6.272-4.032,11.625c2.671,2.163,5.178,4.975,7.308,8.636
					l0.581-1.341C411.024,196.611,415.064,181.529,408.361,172.784z"/>
				<path style="fill:#407BFF;" d="M399.111,193.576c8.581-7.246,14.111,0,14.111,0c-3.067,0.564-5.891,2.297-8.409,4.585
					l-0.982-1.49v2.424c-0.605,0.602-1.19,1.234-1.755,1.886l-1.535-4.31l0.375,5.712c-0.816,1.03-1.583,2.09-2.297,3.151
					l-0.509-4.203l-0.336,5.497c-0.757,1.191-1.445,2.362-2.058,3.469l-0.324-7.663l-0.825,9.82
					c-1.502,2.939-2.321,5.022-2.321,5.022S390.53,200.822,399.111,193.576z"/>
				<path style="fill:#407BFF;" d="M419.42,213.623l-1.725,0.834c-0.15-1.29-0.332-2.649-0.552-4.028l1.276-1.979l-1.479,0.772
					c-0.08-0.459-0.166-0.916-0.256-1.373l1.735-3.934l-2.276,1.453c-0.904-3.723-2.161-7.034-3.911-8.697
					c0,0,17.962,7.203,6.139,26.271c0,0-0.105-3.162-0.548-7.334L419.42,213.623z"/>
				<path style="fill:#407BFF;" d="M402.51,196.105l-2.54-5.749l0.793,5.855c-0.295,0.027-0.595,0.06-0.9,0.097l-3.468-5.02
					l0.544,5.531c-1.248,0.28-2.557,0.649-3.929,1.134c-1.389,0.492-2.767,1.075-4.118,1.718l-1.507-4.98l0.473,5.486
					c-1.316,0.662-2.6,1.375-3.839,2.116l-0.616-4.339l-0.265,4.874c-1.519,0.939-2.961,1.908-4.292,2.857l0.673-7.731l-1.746,8.509
					c-1.367,1.007-2.595,1.971-3.648,2.832l0.246-5.379l-1.849,6.72c-1.519,1.302-2.393,2.143-2.393,2.143
					c2.098-18.745,9.916-25.685,22.12-26.829c12.204-1.144,19.985,12.004,19.985,12.004S408.656,195.934,402.51,196.105z"/>
				<path style="fill:#407BFF;" d="M436.009,221.618l-1.508,5.524c-0.428-1.43-1.021-3.268-1.788-5.321l1.58-8.13l-2.274,6.334
					c-1.129-2.818-2.553-5.9-4.286-8.807l2.127-5.561l-3.089,4.018c-0.503-0.772-1.029-1.526-1.579-2.251l1.235-3.509l-1.721,2.883
					c-0.379-0.476-0.769-0.937-1.17-1.383l1.529-4.689l-2.179,3.992c-1.138-1.18-2.357-2.221-3.66-3.066l2.339-5.699
					c0,0-1.522,2.279-3.387,5.074c-1.827-1.001-3.807-1.618-5.948-1.699c0,0,4.042-5.561,10.907-7.087
					c6.865-1.525,20.404,11.652,12.204,37.957c0,0-0.147-0.623-0.445-1.69L436.009,221.618z"/>
				<path style="fill:#407BFF;" d="M428.716,168.834l0.898,3.478c-0.372-0.007-0.797,0.016-1.267,0.088l-1.061-4.52l0.593,4.605
					c-0.76,0.161-1.621,0.455-2.557,0.951l-1.468-6.109l0.645,6.589c-0.318,0.202-0.644,0.427-0.975,0.679l-1.739-5.76l1.178,6.206
					c-1.39,1.159-2.877,2.786-4.401,5.058v-8.261l-1.755,11.148c-1.533,2.771-3.078,6.244-4.575,10.591
					c0,0,0.991-29.938,8.428-32.798c7.437-2.86,10.679,11.823,10.679,11.823s-0.35-0.147-0.973-0.232L428.716,168.834z"/>
				<path style="fill:#407BFF;" d="M416.038,201.331l-1.052,5.618l-1.764-5.618l-3.242,4.064l-0.858-4.064l-3.575,2.585
					c0,0,0.934-7.193,3.327-10.339C411.268,190.43,417.541,193.214,416.038,201.331z"/>
			</g>
			<g style="opacity:0.3;">
				<path style="fill:#FFFFFF;" d="M421.896,179.064c10.547-5.872,24.697,5.708,25.555,22.267c0,0-1.659-1.198-4.464-2.531
					c-0.482-4.184-0.97-7.893-0.97-7.893v7.449c-0.862-0.381-1.807-0.762-2.834-1.122l-0.408-4.039l-0.598,3.7
					c-1.32-0.422-2.755-0.793-4.275-1.079l-1.039-11.773l-1.802,11.364c-1.439-0.144-2.937-0.196-4.484-0.125l-0.58-8.002
					l-0.594,8.075c-1.254,0.108-2.537,0.308-3.839,0.599l-0.526-11.911c0,0-0.439,6.645-0.921,12.27
					c-3.311,0.923-6.729,2.507-10.139,5.019v-1.462C409.98,199.869,412.269,184.423,421.896,179.064z"/>
				<path style="fill:#FFFFFF;" d="M408.361,172.784c-7.344-9.581-24.931-4.58-32.301,10.273c0,0,1.999-0.44,5.103-0.548
					c2.106-3.647,4.028-6.857,4.028-6.857l-2.961,6.835c0.943-0.007,1.961,0.02,3.046,0.097l1.98-3.544l-0.922,3.632
					c1.379,0.138,2.843,0.368,4.351,0.709l5.633-10.39l-2.864,11.144c1.378,0.44,2.773,0.988,4.164,1.668l3.713-7.112l-2.665,7.645
					c1.108,0.598,2.206,1.291,3.285,2.075l5.217-10.72c0,0-2.238,6.272-4.032,11.625c2.671,2.163,5.178,4.975,7.308,8.636
					l0.581-1.341C411.024,196.611,415.064,181.529,408.361,172.784z"/>
				<path style="fill:#FFFFFF;" d="M399.111,193.576c8.581-7.246,14.111,0,14.111,0c-3.067,0.564-5.891,2.297-8.409,4.585
					l-0.982-1.49v2.424c-0.605,0.602-1.19,1.234-1.755,1.886l-1.535-4.31l0.375,5.712c-0.816,1.03-1.583,2.09-2.297,3.151
					l-0.509-4.203l-0.336,5.497c-0.757,1.191-1.445,2.362-2.058,3.469l-0.324-7.663l-0.825,9.82
					c-1.502,2.939-2.321,5.022-2.321,5.022S390.53,200.822,399.111,193.576z"/>
				<path style="fill:#FFFFFF;" d="M419.42,213.623l-1.725,0.834c-0.15-1.29-0.332-2.649-0.552-4.028l1.276-1.979l-1.479,0.772
					c-0.08-0.459-0.166-0.916-0.256-1.373l1.735-3.934l-2.276,1.453c-0.904-3.723-2.161-7.034-3.911-8.697
					c0,0,17.962,7.203,6.139,26.271c0,0-0.105-3.162-0.548-7.334L419.42,213.623z"/>
				<path style="fill:#FFFFFF;" d="M402.51,196.105l-2.54-5.749l0.793,5.855c-0.295,0.027-0.595,0.06-0.9,0.097l-3.468-5.02
					l0.544,5.531c-1.248,0.28-2.557,0.649-3.929,1.134c-1.389,0.492-2.767,1.075-4.118,1.718l-1.507-4.98l0.473,5.486
					c-1.316,0.662-2.6,1.375-3.839,2.116l-0.616-4.339l-0.265,4.874c-1.519,0.939-2.961,1.908-4.292,2.857l0.673-7.731l-1.746,8.509
					c-1.367,1.007-2.595,1.971-3.648,2.832l0.246-5.379l-1.849,6.72c-1.519,1.302-2.393,2.143-2.393,2.143
					c2.098-18.745,9.916-25.685,22.12-26.829c12.204-1.144,19.985,12.004,19.985,12.004S408.656,195.934,402.51,196.105z"/>
				<path style="fill:#FFFFFF;" d="M436.009,221.618l-1.508,5.524c-0.428-1.43-1.021-3.268-1.788-5.321l1.58-8.13l-2.274,6.334
					c-1.129-2.818-2.553-5.9-4.286-8.807l2.127-5.561l-3.089,4.018c-0.503-0.772-1.029-1.526-1.579-2.251l1.235-3.509l-1.721,2.883
					c-0.379-0.476-0.769-0.937-1.17-1.383l1.529-4.689l-2.179,3.992c-1.138-1.18-2.357-2.221-3.66-3.066l2.339-5.699
					c0,0-1.522,2.279-3.387,5.074c-1.827-1.001-3.807-1.618-5.948-1.699c0,0,4.042-5.561,10.907-7.087
					c6.865-1.525,20.404,11.652,12.204,37.957c0,0-0.147-0.623-0.445-1.69L436.009,221.618z"/>
				<path style="fill:#FFFFFF;" d="M428.716,168.834l0.898,3.478c-0.372-0.007-0.797,0.016-1.267,0.088l-1.061-4.52l0.593,4.605
					c-0.76,0.161-1.621,0.455-2.557,0.951l-1.468-6.109l0.645,6.589c-0.318,0.202-0.644,0.427-0.975,0.679l-1.739-5.76l1.178,6.206
					c-1.39,1.159-2.877,2.786-4.401,5.058v-8.261l-1.755,11.148c-1.533,2.771-3.078,6.244-4.575,10.591
					c0,0,0.991-29.938,8.428-32.798c7.437-2.86,10.679,11.823,10.679,11.823s-0.35-0.147-0.973-0.232L428.716,168.834z"/>
				<path style="fill:#FFFFFF;" d="M416.038,201.331l-1.052,5.618l-1.764-5.618l-3.242,4.064l-0.858-4.064l-3.575,2.585
					c0,0,0.934-7.193,3.327-10.339C411.268,190.43,417.541,193.214,416.038,201.331z"/>
			</g>
		</g>
		<g>
			<g>
				<path style="fill:#407BFF;" d="M118.704,383.581c0,0-5.246-81.515-32.185-187.673l5.466-4.126c0,0,23.624,38.356,47.322,186.977
					L118.704,383.581z"/>
			</g>
			<g style="opacity:0.5;">
				<path style="fill:#FFFFFF;" d="M118.704,383.581c0,0-5.246-81.515-32.185-187.673l5.466-4.126c0,0,23.624,38.356,47.322,186.977
					L118.704,383.581z"/>
			</g>
			<g>
				<path style="fill:#407BFF;" d="M79.578,171.186c-12.67-7.053-29.667,6.857-30.698,26.748c0,0,1.993-1.439,5.363-3.04
					c0.579-5.026,1.166-9.482,1.166-9.482v8.948c1.036-0.458,2.171-0.915,3.404-1.348l0.49-4.852l0.718,4.444
					c1.586-0.507,3.309-0.952,5.135-1.297l1.248-14.143l2.164,13.652c1.729-0.173,3.529-0.235,5.386-0.15l0.696-9.613l0.713,9.7
					c1.507,0.129,3.048,0.37,4.611,0.719l0.631-14.308c0,0,0.527,7.982,1.107,14.74c3.977,1.109,8.083,3.011,12.179,6.029v-1.756
					C93.892,196.179,91.143,177.624,79.578,171.186z"/>
				<path style="fill:#407BFF;" d="M95.837,163.643c8.822-11.509,29.949-5.501,38.801,12.341c0,0-2.401-0.528-6.13-0.658
					c-2.529-4.381-4.839-8.237-4.839-8.237l3.557,8.211c-1.132-0.008-2.356,0.023-3.659,0.117l-2.379-4.257l1.107,4.364
					c-1.656,0.166-3.415,0.441-5.227,0.852l-6.767-12.482l3.441,13.387c-1.655,0.529-3.331,1.187-5.002,2.004l-4.46-8.544
					l3.202,9.184c-1.331,0.718-2.65,1.551-3.946,2.493l-6.267-12.878c0,0,2.689,7.534,4.844,13.965
					c-3.209,2.598-6.22,5.976-8.779,10.374l-0.698-1.611C92.638,192.266,87.785,174.148,95.837,163.643z"/>
				<path style="fill:#407BFF;" d="M106.949,188.62c-10.308-8.705-16.951,0-16.951,0c3.684,0.678,7.076,2.759,10.102,5.508
					l1.18-1.79v2.912c0.727,0.724,1.429,1.482,2.108,2.266l1.844-5.178l-0.45,6.862c0.98,1.237,1.901,2.51,2.759,3.785l0.612-5.049
					l0.403,6.603c0.909,1.431,1.736,2.837,2.472,4.167l0.389-9.205l0.991,11.796c1.804,3.531,2.789,6.033,2.789,6.033
					S117.257,197.324,106.949,188.62z"/>
				<path style="fill:#407BFF;" d="M82.553,212.701l2.073,1.002c0.181-1.55,0.399-3.182,0.664-4.838l-1.534-2.378l1.777,0.928
					c0.097-0.551,0.2-1.101,0.307-1.649l-2.084-4.726l2.734,1.745c1.085-4.473,2.596-8.449,4.698-10.448
					c0,0-21.577,8.652-7.375,31.559c0,0,0.127-3.799,0.658-8.81L82.553,212.701z"/>
				<path style="fill:#407BFF;" d="M102.867,191.657l3.052-6.907l-0.952,7.033c0.355,0.033,0.715,0.072,1.082,0.117l4.165-6.03
					l-0.653,6.644c1.499,0.336,3.072,0.779,4.719,1.363c1.669,0.591,3.324,1.292,4.947,2.063l1.81-5.982l-0.568,6.59
					c1.581,0.795,3.124,1.652,4.612,2.542l0.739-5.213l0.319,5.855c1.825,1.128,3.557,2.292,5.156,3.432l-0.809-9.287l2.097,10.222
					c1.642,1.209,3.118,2.368,4.383,3.402l-0.295-6.461l2.222,8.072c1.825,1.564,2.875,2.574,2.875,2.574
					c-2.52-22.518-11.912-30.855-26.572-32.229c-14.66-1.374-24.007,14.42-24.007,14.42S95.483,191.452,102.867,191.657z"/>
				<path style="fill:#407BFF;" d="M62.624,222.305l1.812,6.636c0.514-1.717,1.227-3.926,2.148-6.392l-1.898-9.766l2.732,7.609
					c1.356-3.385,3.067-7.088,5.149-10.579l-2.554-6.68l3.71,4.826c0.605-0.928,1.236-1.833,1.896-2.704l-1.483-4.215l2.068,3.463
					c0.455-0.572,0.924-1.126,1.405-1.661l-1.837-5.632l2.618,4.795c1.366-1.417,2.831-2.668,4.396-3.684l-2.81-6.847
					c0,0,1.828,2.738,4.069,6.095c2.195-1.203,4.573-1.944,7.145-2.041c0,0-4.855-6.68-13.102-8.513
					c-8.247-1.833-24.511,13.997-14.661,45.596c0,0,0.177-0.749,0.534-2.03L62.624,222.305z"/>
				<path style="fill:#407BFF;" d="M71.386,158.898l-1.079,4.178c0.447-0.008,0.957,0.019,1.522,0.105l1.275-5.429l-0.712,5.531
					c0.913,0.194,1.948,0.547,3.072,1.143l1.764-7.339l-0.775,7.915c0.382,0.242,0.773,0.513,1.172,0.816l2.089-6.919l-1.415,7.455
					c1.67,1.392,3.456,3.347,5.287,6.076v-9.923l2.108,13.391c1.841,3.329,3.698,7.5,5.496,12.722c0,0-1.19-35.964-10.124-39.4
					c-8.934-3.436-12.828,14.202-12.828,14.202s0.42-0.177,1.168-0.278L71.386,158.898z"/>
				<path style="fill:#407BFF;" d="M86.616,197.935l1.263,6.749l2.119-6.749l3.894,4.882l1.031-4.882l4.295,3.105
					c0,0-1.122-8.641-3.997-12.42C92.346,184.84,84.81,188.185,86.616,197.935z"/>
			</g>
			<g style="opacity:0.3;">
				<path style="fill:#FFFFFF;" d="M79.578,171.186c-12.67-7.053-29.667,6.857-30.698,26.748c0,0,1.993-1.439,5.363-3.04
					c0.579-5.026,1.166-9.482,1.166-9.482v8.948c1.036-0.458,2.171-0.915,3.404-1.348l0.49-4.852l0.718,4.444
					c1.586-0.507,3.309-0.952,5.135-1.297l1.248-14.143l2.164,13.652c1.729-0.173,3.529-0.235,5.386-0.15l0.696-9.613l0.713,9.7
					c1.507,0.129,3.048,0.37,4.611,0.719l0.631-14.308c0,0,0.527,7.982,1.107,14.74c3.977,1.109,8.083,3.011,12.179,6.029v-1.756
					C93.892,196.179,91.143,177.624,79.578,171.186z"/>
				<path style="fill:#FFFFFF;" d="M95.837,163.643c8.822-11.509,29.949-5.501,38.801,12.341c0,0-2.401-0.528-6.13-0.658
					c-2.529-4.381-4.839-8.237-4.839-8.237l3.557,8.211c-1.132-0.008-2.356,0.023-3.659,0.117l-2.379-4.257l1.107,4.364
					c-1.656,0.166-3.415,0.441-5.227,0.852l-6.767-12.482l3.441,13.387c-1.655,0.529-3.331,1.187-5.002,2.004l-4.46-8.544
					l3.202,9.184c-1.331,0.718-2.65,1.551-3.946,2.493l-6.267-12.878c0,0,2.689,7.534,4.844,13.965
					c-3.209,2.598-6.22,5.976-8.779,10.374l-0.698-1.611C92.638,192.266,87.785,174.148,95.837,163.643z"/>
				<path style="fill:#FFFFFF;" d="M106.949,188.62c-10.308-8.705-16.951,0-16.951,0c3.684,0.678,7.076,2.759,10.102,5.508
					l1.18-1.79v2.912c0.727,0.724,1.429,1.482,2.108,2.266l1.844-5.178l-0.45,6.862c0.98,1.237,1.901,2.51,2.759,3.785l0.612-5.049
					l0.403,6.603c0.909,1.431,1.736,2.837,2.472,4.167l0.389-9.205l0.991,11.796c1.804,3.531,2.789,6.033,2.789,6.033
					S117.257,197.324,106.949,188.62z"/>
				<path style="fill:#FFFFFF;" d="M82.553,212.701l2.073,1.002c0.181-1.55,0.399-3.182,0.664-4.838l-1.534-2.378l1.777,0.928
					c0.097-0.551,0.2-1.101,0.307-1.649l-2.084-4.726l2.734,1.745c1.085-4.473,2.596-8.449,4.698-10.448
					c0,0-21.577,8.652-7.375,31.559c0,0,0.127-3.799,0.658-8.81L82.553,212.701z"/>
				<path style="fill:#FFFFFF;" d="M102.867,191.657l3.052-6.907l-0.952,7.033c0.355,0.033,0.715,0.072,1.082,0.117l4.165-6.03
					l-0.653,6.644c1.499,0.336,3.072,0.779,4.719,1.363c1.669,0.591,3.324,1.292,4.947,2.063l1.81-5.982l-0.568,6.59
					c1.581,0.795,3.124,1.652,4.612,2.542l0.739-5.213l0.319,5.855c1.825,1.128,3.557,2.292,5.156,3.432l-0.809-9.287l2.097,10.222
					c1.642,1.209,3.118,2.368,4.383,3.402l-0.295-6.461l2.222,8.072c1.825,1.564,2.875,2.574,2.875,2.574
					c-2.52-22.518-11.912-30.855-26.572-32.229c-14.66-1.374-24.007,14.42-24.007,14.42S95.483,191.452,102.867,191.657z"/>
				<path style="fill:#FFFFFF;" d="M62.624,222.305l1.812,6.636c0.514-1.717,1.227-3.926,2.148-6.392l-1.898-9.766l2.732,7.609
					c1.356-3.385,3.067-7.088,5.149-10.579l-2.554-6.68l3.71,4.826c0.605-0.928,1.236-1.833,1.896-2.704l-1.483-4.215l2.068,3.463
					c0.455-0.572,0.924-1.126,1.405-1.661l-1.837-5.632l2.618,4.795c1.366-1.417,2.831-2.668,4.396-3.684l-2.81-6.847
					c0,0,1.828,2.738,4.069,6.095c2.195-1.203,4.573-1.944,7.145-2.041c0,0-4.855-6.68-13.102-8.513
					c-8.247-1.833-24.511,13.997-14.661,45.596c0,0,0.177-0.749,0.534-2.03L62.624,222.305z"/>
				<path style="fill:#FFFFFF;" d="M71.386,158.898l-1.079,4.178c0.447-0.008,0.957,0.019,1.522,0.105l1.275-5.429l-0.712,5.531
					c0.913,0.194,1.948,0.547,3.072,1.143l1.764-7.339l-0.775,7.915c0.382,0.242,0.773,0.513,1.172,0.816l2.089-6.919l-1.415,7.455
					c1.67,1.392,3.456,3.347,5.287,6.076v-9.923l2.108,13.391c1.841,3.329,3.698,7.5,5.496,12.722c0,0-1.19-35.964-10.124-39.4
					c-8.934-3.436-12.828,14.202-12.828,14.202s0.42-0.177,1.168-0.278L71.386,158.898z"/>
				<path style="fill:#FFFFFF;" d="M86.616,197.935l1.263,6.749l2.119-6.749l3.894,4.882l1.031-4.882l4.295,3.105
					c0,0-1.122-8.641-3.997-12.42C92.346,184.84,84.81,188.185,86.616,197.935z"/>
			</g>
		</g>
		<g>
			<path style="fill:#407BFF;" d="M448.011,397.279c0,0-73.446-51.946-193.761-51.946c-120.315,0-197.669,50.419-197.669,50.419
				L448.011,397.279z"/>
			<path style="opacity:0.7;fill:#FFFFFF;enable-background:new    ;" d="M448.011,397.279c0,0-73.446-51.946-193.761-51.946
				c-120.315,0-197.669,50.419-197.669,50.419L448.011,397.279z"/>
		</g>
		<g>
			<g>
				<g>
					<path style="fill:#407BFF;" d="M137.417,371.482c0,0-16.185-115.656,22.07-235.013l-5.891-4.59
						c0,0-44.596,90.189-38.895,242.737L137.417,371.482z"/>
				</g>
				<g style="opacity:0.6;enable-background:new    ;">
					<path style="fill:#FFFFFF;" d="M137.417,371.482c0,0-16.185-115.656,22.07-235.013l-5.891-4.59
						c0,0-44.596,90.189-38.895,242.737L137.417,371.482z"/>
				</g>
			</g>
			<g>
				<path style="fill:#407BFF;" d="M169.895,105.136c13.86-8.988,34.245,5.52,36.941,28.048c0,0-2.376-1.483-6.328-3.044
					c-1.044-5.668-2.051-10.687-2.051-10.687l0.686,10.17c-1.212-0.441-2.538-0.874-3.972-1.271l-0.929-5.477l-0.476,5.106
					c-1.841-0.454-3.834-0.829-5.935-1.08l-2.503-15.979l-1.413,15.682c-1.978-0.064-4.028,0.003-6.133,0.243l-1.528-10.872
					l-0.067,11.079c-1.703,0.263-3.436,0.654-5.186,1.171l-1.814-16.214c0,0,0.012,9.112-0.128,16.837
					c-4.435,1.565-8.956,4.042-13.38,7.786l-0.135-1.996C155.543,134.639,157.245,113.34,169.895,105.136z"/>
				<path style="fill:#407BFF;" d="M150.838,97.809c-10.909-12.404-34.46-3.957-43.155,17.001c0,0,2.689-0.785,6.916-1.218
					c2.539-5.173,4.868-9.733,4.868-9.733l-3.414,9.605c1.286-0.096,2.679-0.154,4.168-0.148l2.377-5.021l-0.924,5.044
					c1.895,0.061,3.915,0.24,6.006,0.567l6.735-14.705l-2.885,15.479c1.922,0.474,3.877,1.094,5.838,1.894l4.414-10.052
					l-2.935,10.683c1.568,0.714,3.131,1.56,4.676,2.531l6.136-15.117c0,0-2.479,8.769-4.435,16.243
					c3.846,2.707,7.528,6.316,10.773,11.117l0.67-1.885C156.668,130.095,160.795,109.131,150.838,97.809z"/>
				<path style="fill:#407BFF;" d="M140.123,127.048c11.049-10.684,19.266-1.299,19.266-1.299
					c-4.135,1.052-7.831,3.678-11.059,7.034l-1.478-1.944l0.223,3.31c-0.771,0.878-1.511,1.794-2.222,2.737l-2.492-5.744
					l1.037,7.765c-1.019,1.482-1.969,2.999-2.845,4.513l-1.082-5.692l0.048,7.536c-0.924,1.696-1.756,3.358-2.49,4.925
					l-1.148-10.432l-0.222,13.483c-1.78,4.151-2.707,7.071-2.707,7.071S129.075,137.732,140.123,127.048z"/>
				<path style="fill:#407BFF;" d="M169.697,152.548l-2.279,1.298c-0.324-1.747-0.697-3.586-1.125-5.448l1.561-2.82l-1.948,1.191
					c-0.152-0.619-0.311-1.236-0.475-1.851l2.006-5.531l-2.974,2.193c-1.576-5.001-3.598-9.404-6.141-11.515
					c0,0,25.187,8.18,10.802,35.304c0,0-0.435-4.308-1.423-9.963L169.697,152.548z"/>
				<path style="fill:#407BFF;" d="M144.996,130.188l-3.998-7.616l1.622,7.921c-0.401,0.064-0.807,0.136-1.22,0.216l-5.197-6.534
					l1.252,7.501c-1.678,0.497-3.431,1.121-5.26,1.91c-1.852,0.8-3.679,1.723-5.465,2.725l-2.516-6.66l1.151,7.446
					c-1.736,1.025-3.424,2.117-5.047,3.242l-1.24-5.868l0.087,6.679c-1.988,1.422-3.867,2.877-5.597,4.296l0.207-10.618l-1.6,11.779
					c-1.773,1.5-3.362,2.93-4.72,4.202l-0.16-7.366l-1.906,9.345c-1.954,1.917-3.07,3.146-3.07,3.146
					c1.138-25.786,11.173-35.981,27.73-38.667c16.557-2.686,28.391,14.549,28.391,14.549S153.372,129.389,144.996,130.188z"/>
				<path style="fill:#407BFF;" d="M193.083,161.937l-1.55,7.681c-0.716-1.912-1.696-4.368-2.931-7.1l1.408-11.245l-2.521,8.858
					c-1.8-3.743-4.029-7.82-6.663-11.629l2.391-7.788l-3.847,5.77c-0.758-1.008-1.545-1.989-2.363-2.928l1.363-4.905l-2.085,4.095
					c-0.561-0.615-1.137-1.209-1.724-1.78l1.656-6.542l-2.607,5.65c-1.662-1.506-3.422-2.815-5.279-3.85l2.669-7.997
					c0,0-1.868,3.252-4.157,7.24c-2.587-1.199-5.347-1.859-8.277-1.772c0,0,5.006-7.965,14.238-10.68
					c9.232-2.715,28.931,14.029,20.158,50.699c0,0-0.258-0.838-0.763-2.266L193.083,161.937z"/>
				<path style="fill:#407BFF;" d="M178.264,90.541l1.547,4.666c-0.508,0.025-1.086,0.095-1.722,0.237l-1.865-6.073l1.233,6.232
					c-1.023,0.291-2.172,0.771-3.403,1.534l-2.567-8.206l1.488,8.936c-0.416,0.305-0.839,0.642-1.269,1.017l-2.904-7.704l2.18,8.365
					c-1.791,1.71-3.672,4.069-5.543,7.311l-0.761-11.278l-1.37,15.382c-1.838,3.924-3.628,8.808-5.271,14.881
					c0,0-1.404-40.966,8.486-45.556c9.89-4.59,15.668,15.158,15.668,15.158s-0.491-0.169-1.349-0.227L178.264,90.541z"/>
				<path style="fill:#407BFF;" d="M163.947,136.077l-0.918,7.767l-2.926-7.508l-4.052,5.847l-1.546-5.47l-4.644,3.858
					c0,0,0.613-9.907,3.591-14.423C156.431,121.633,165.253,124.857,163.947,136.077z"/>
			</g>
			<g style="opacity:0.4;">
				<path style="fill:#FFFFFF;" d="M169.895,105.136c13.86-8.988,34.245,5.52,36.941,28.048c0,0-2.376-1.483-6.328-3.044
					c-1.044-5.668-2.051-10.687-2.051-10.687l0.686,10.17c-1.212-0.441-2.538-0.874-3.972-1.271l-0.929-5.477l-0.476,5.106
					c-1.841-0.454-3.834-0.829-5.935-1.08l-2.503-15.979l-1.413,15.682c-1.978-0.064-4.028,0.003-6.133,0.243l-1.528-10.872
					l-0.067,11.079c-1.703,0.263-3.436,0.654-5.186,1.171l-1.814-16.214c0,0,0.012,9.112-0.128,16.837
					c-4.435,1.565-8.956,4.042-13.38,7.786l-0.135-1.996C155.543,134.639,157.245,113.34,169.895,105.136z"/>
				<path style="fill:#FFFFFF;" d="M150.838,97.809c-10.909-12.404-34.46-3.957-43.155,17.001c0,0,2.689-0.785,6.916-1.218
					c2.539-5.173,4.868-9.733,4.868-9.733l-3.414,9.605c1.286-0.096,2.679-0.154,4.168-0.148l2.377-5.021l-0.924,5.044
					c1.895,0.061,3.915,0.24,6.006,0.567l6.735-14.705l-2.885,15.479c1.922,0.474,3.877,1.094,5.838,1.894l4.414-10.052
					l-2.935,10.683c1.568,0.714,3.131,1.56,4.676,2.531l6.136-15.117c0,0-2.479,8.769-4.435,16.243
					c3.846,2.707,7.528,6.316,10.773,11.117l0.67-1.885C156.668,130.095,160.795,109.131,150.838,97.809z"/>
				<path style="fill:#FFFFFF;" d="M140.123,127.048c11.049-10.684,19.266-1.299,19.266-1.299
					c-4.135,1.052-7.831,3.678-11.059,7.034l-1.478-1.944l0.223,3.31c-0.771,0.878-1.511,1.794-2.222,2.737l-2.492-5.744
					l1.037,7.765c-1.019,1.482-1.969,2.999-2.845,4.513l-1.082-5.692l0.048,7.536c-0.924,1.696-1.756,3.358-2.49,4.925
					l-1.148-10.432l-0.222,13.483c-1.78,4.151-2.707,7.071-2.707,7.071S129.075,137.732,140.123,127.048z"/>
				<path style="fill:#FFFFFF;" d="M169.697,152.548l-2.279,1.298c-0.324-1.747-0.697-3.586-1.125-5.448l1.561-2.82l-1.948,1.191
					c-0.152-0.619-0.311-1.236-0.475-1.851l2.006-5.531l-2.974,2.193c-1.576-5.001-3.598-9.404-6.141-11.515
					c0,0,25.187,8.18,10.802,35.304c0,0-0.435-4.308-1.423-9.963L169.697,152.548z"/>
				<path style="fill:#FFFFFF;" d="M144.996,130.188l-3.998-7.616l1.622,7.921c-0.401,0.064-0.807,0.136-1.22,0.216l-5.197-6.534
					l1.252,7.501c-1.678,0.497-3.431,1.121-5.26,1.91c-1.852,0.8-3.679,1.723-5.465,2.725l-2.516-6.66l1.151,7.446
					c-1.736,1.025-3.424,2.117-5.047,3.242l-1.24-5.868l0.087,6.679c-1.988,1.422-3.867,2.877-5.597,4.296l0.207-10.618l-1.6,11.779
					c-1.773,1.5-3.362,2.93-4.72,4.202l-0.16-7.366l-1.906,9.345c-1.954,1.917-3.07,3.146-3.07,3.146
					c1.138-25.786,11.173-35.981,27.73-38.667c16.557-2.686,28.391,14.549,28.391,14.549S153.372,129.389,144.996,130.188z"/>
				<path style="fill:#FFFFFF;" d="M193.083,161.937l-1.55,7.681c-0.716-1.912-1.696-4.368-2.931-7.1l1.408-11.245l-2.521,8.858
					c-1.8-3.743-4.029-7.82-6.663-11.629l2.391-7.788l-3.847,5.77c-0.758-1.008-1.545-1.989-2.363-2.928l1.363-4.905l-2.085,4.095
					c-0.561-0.615-1.137-1.209-1.724-1.78l1.656-6.542l-2.607,5.65c-1.662-1.506-3.422-2.815-5.279-3.85l2.669-7.997
					c0,0-1.868,3.252-4.157,7.24c-2.587-1.199-5.347-1.859-8.277-1.772c0,0,5.006-7.965,14.238-10.68
					c9.232-2.715,28.931,14.029,20.158,50.699c0,0-0.258-0.838-0.763-2.266L193.083,161.937z"/>
				<path style="fill:#FFFFFF;" d="M178.264,90.541l1.547,4.666c-0.508,0.025-1.086,0.095-1.722,0.237l-1.865-6.073l1.233,6.232
					c-1.023,0.291-2.172,0.771-3.403,1.534l-2.567-8.206l1.488,8.936c-0.416,0.305-0.839,0.642-1.269,1.017l-2.904-7.704l2.18,8.365
					c-1.791,1.71-3.672,4.069-5.543,7.311l-0.761-11.278l-1.37,15.382c-1.838,3.924-3.628,8.808-5.271,14.881
					c0,0-1.404-40.966,8.486-45.556c9.89-4.59,15.668,15.158,15.668,15.158s-0.491-0.169-1.349-0.227L178.264,90.541z"/>
				<path style="fill:#FFFFFF;" d="M163.947,136.077l-0.918,7.767l-2.926-7.508l-4.052,5.847l-1.546-5.47l-4.644,3.858
					c0,0,0.613-9.907,3.591-14.423C156.431,121.633,165.253,124.857,163.947,136.077z"/>
			</g>
		</g>
	</g>
</g>
<g id="Car">
	<g>
		<g>
			<path style="fill:#407BFF;" d="M266.26,371.782c0,0,28.535-91.603,103.697-153.541
				C369.958,218.241,344.816,297.63,266.26,371.782z"/>
			<path style="opacity:0.6;fill:#FFFFFF;enable-background:new    ;" d="M369.944,218.255c0,0.01,0,0.01,0,0.02
				c-0.55,1.71-25.99,80.17-103.68,153.51C266.264,371.785,294.794,280.195,369.944,218.255z"/>
			<path style="opacity:0.2;enable-background:new    ;" d="M369.944,218.275c-0.55,1.71-25.99,80.17-103.68,153.51
				C314.424,325.755,368.954,220.195,369.944,218.275z"/>
			<path style="fill:#407BFF;" d="M352.28,239.392c0,0-6.814-8.933-8.809-17.311c0,0-6.622,15.232-2.774,28.52
				C340.697,250.601,348.553,248.231,352.28,239.392z"/>
			<path style="opacity:0.4;fill:#FFFFFF;enable-background:new    ;" d="M352.28,239.392c0,0-6.814-8.933-8.809-17.311
				c0,0-6.622,15.232-2.774,28.52C340.697,250.601,348.553,248.231,352.28,239.392z"/>
		</g>
		<g>
			
				<rect x="293.536" y="261.501" transform="matrix(0.9788 0.2046 -0.2046 0.9788 62.9266 -55.0422)" style="fill:none;stroke:#263238;stroke-width:3;stroke-miterlimit:10;" width="8.241" height="30.603"/>
			<g>
				<path style="fill:#263238;" d="M280.582,346.645c-0.222-0.047-1.06-0.221-1.282-0.268c-1.442-0.301-2.845,0.576-3.146,2.018
					c-0.301,1.442,0.633,2.807,2.074,3.109c0.223,0.047,1.06,0.222,1.282,0.268c1.441,0.301,2.845-0.576,3.146-2.018
					C282.958,348.312,282.023,346.947,280.582,346.645z"/>
				<path style="opacity:0.1;fill:#FFFFFF;enable-background:new    ;" d="M282.666,349.707c-0.301,1.442-1.714,2.366-3.156,2.065
					s-2.366-1.714-2.065-3.156s1.714-2.366,3.156-2.065C282.043,346.852,282.967,348.265,282.666,349.707z"/>
			</g>
			<g>
				<path style="fill:#263238;" d="M287.63,348.118c-0.223-0.046-1.06-0.221-1.282-0.268c-1.442-0.301-2.845,0.576-3.146,2.018
					c-0.301,1.442,0.633,2.807,2.075,3.109c0.223,0.047,1.06,0.221,1.282,0.268c1.442,0.301,2.845-0.576,3.146-2.018
					C290.006,349.785,289.072,348.42,287.63,348.118z"/>
				<path style="opacity:0.2;fill:#FFFFFF;enable-background:new    ;" d="M289.715,351.18c-0.301,1.442-1.714,2.366-3.156,2.065
					c-1.441-0.301-2.366-1.714-2.065-3.156c0.301-1.442,1.714-2.366,3.156-2.065C289.092,348.325,290.016,349.738,289.715,351.18z"
					/>
			</g>
			<path style="fill:#407BFF;" d="M322.39,299.109l-9.475,45.335c-0.943,4.511-5.453,7.82-9.964,6.877l-22.587-4.721l12.99-62.155
				l22.587,4.721c3.134,0.655,5.48,3.026,6.31,5.901C322.616,296.333,322.678,297.731,322.39,299.109z"/>
			<path style="fill:#263238;" d="M287.655,349.022l-8.179-1.71c-1.456-0.304-2.39-1.732-2.086-3.188l12.311-58.903
				c0.304-1.456,1.732-2.39,3.188-2.086l8.179,1.709c1.456,0.304,2.39,1.732,2.086,3.188l-12.311,58.903
				C290.538,348.393,289.111,349.327,287.655,349.022z"/>
			<path style="opacity:0.2;fill:#FFFFFF;enable-background:new    ;" d="M282.673,347.981l-3.198-0.668
				c-1.456-0.304-2.39-1.732-2.086-3.188l12.311-58.903c0.304-1.456,1.732-2.39,3.188-2.086l3.198,0.668
				c1.456,0.304,2.39,1.732,2.086,3.188l-12.311,58.903C285.557,347.352,284.129,348.286,282.673,347.981z"/>
			<path style="opacity:0.2;enable-background:new    ;" d="M322.39,299.109l-9.475,45.335c-0.943,4.511-5.453,7.82-9.964,6.877
				l-9.073-1.896c-0.212-0.713-0.324-1.938-0.162-2.714l10.578-50.615c0.525-2.512,3.136-4.028,5.647-3.503l12.29,2.569
				C322.566,296.569,322.678,297.731,322.39,299.109z"/>
			<path style="opacity:0.2;enable-background:new    ;" d="M282.078,346.158l-2.119-0.443c-1.009-0.211-1.656-1.2-1.445-2.209
				l11.952-57.188c0.211-1.009,1.2-1.656,2.209-1.445l2.119,0.443c1.009,0.211,1.656,1.2,1.445,2.209l-11.952,57.188
				C284.076,345.722,283.087,346.369,282.078,346.158z"/>
			<path style="fill:#263238;" d="M304.272,263.807l-7.609-1.59c-0.929-0.194-1.525-1.105-1.331-2.034l0,0
				c0.194-0.929,1.105-1.525,2.034-1.331l7.609,1.59c0.929,0.194,1.525,1.105,1.331,2.034l0,0
				C306.111,263.405,305.201,264.001,304.272,263.807z"/>
			<path style="opacity:0.2;fill:#FFFFFF;enable-background:new    ;" d="M304.272,263.807l-7.609-1.59
				c-0.929-0.194-1.525-1.105-1.331-2.034l0,0c0.194-0.929,1.105-1.525,2.034-1.331l7.609,1.59c0.929,0.194,1.525,1.105,1.331,2.034
				l0,0C306.111,263.405,305.201,264.001,304.272,263.807z"/>
			<path style="opacity:0.2;enable-background:new    ;" d="M304.314,263.815L304.314,263.815c-0.906-0.189-1.486-1.077-1.297-1.982
				l0.018-0.085c0.189-0.905,1.077-1.486,1.982-1.297l0,0c0.905,0.189,1.486,1.077,1.297,1.982l-0.018,0.085
				C306.107,263.424,305.22,264.005,304.314,263.815z"/>
		</g>
		<g>
			<path style="fill:#E4897B;" d="M223.39,257.45c0,0-2.29,3-4.99,6.06c-2.85,3.25-6.16,6.56-7.69,6.44
				c-2.96-0.24-12.58-3.77-12.58-3.77l-4.33,1.63c0,0-4.05-3.19-4.07-4.32c0-1.12,5.95-2.4,7.14-2.4c1.19,0,2.77,1.79,2.77,1.79
				s9.66,1.96,10.58,1.74c5.03-1.21,9.9-15.01,12.66-15.01l0.21,3.18L223.39,257.45z"/>
			<path style="opacity:0.2;enable-background:new    ;" d="M223.39,257.45c0,0-2.29,3-4.99,6.06c-0.56-4.42,3.98-9.9,4.69-10.72
				L223.39,257.45z"/>
			<path style="fill:#263238;" d="M228.947,234.365c0,0-1.999-5.208,4.521-7.391c6.52-2.183,8.73-2.044,10.543,1.002
				c1.813,3.046,0.824,5.365,4.681,5.145c3.857-0.22,7.165-2.087,9.764,0.231c2.599,2.318,2.005,5.522,5.071,2.486
				c3.066-3.036,3.363-2.714,5.341-1.391c0,0-1.879,0.971-1.78,2.086c0.099,1.115,2.769,0.834,1.78,2.557
				c-0.989,1.723-3.778,5.086-7.774,3.207c-3.995-1.879-5.38-0.297-5.38-0.297s2.971-0.435,4.797,1.632
				c1.632,1.848,2.72,1.414,5.39,0.781c0,0-1.949,4.378-6.673,2.713c-4.723-1.665-5.329-1.269-10.355-0.082
				c-5.027,1.187-13.023,0.593-17.066-3.165C227.764,240.121,228.947,234.365,228.947,234.365z"/>
			<polygon style="fill:#E4897B;" points="253.033,374.676 255.324,371.677 251.441,367.931 247.907,364.526 244.588,367.629 
				249.053,371.358 			"/>
			<path style="fill:#263238;" d="M255.457,370.761c-0.337-0.245-3.181,4.016-3.181,4.016s0.633,4.441-0.65,7.306
				c-1.283,2.865,1.21,2.62,3.283-0.093c2.073-2.714,3.655-4.785,5.127-6.713C261.51,373.348,258.947,373.299,255.457,370.761z"/>
			<g>
				<path style="fill:#407BFF;" d="M251.221,378.004c-0.117,0-0.265-0.052-0.417-0.244c-0.094-0.118-0.131-0.262-0.109-0.427
					c0.041-0.31,0.3-0.669,0.596-0.987c-0.428,0.196-0.864,0.321-1.087,0.171c-0.145-0.098-0.191-0.276-0.138-0.528
					c0.05-0.237,0.181-0.417,0.387-0.536c0.649-0.377,1.851,0.004,1.91,0.023c0.017,0.005,0.033,0.014,0.047,0.026l0,0l0.001,0.001
					h0c0,0,0,0.001,0.001,0c0,0,0,0,0,0c0.011,0.01,0.02,0.021,0.028,0.034l0,0c0,0,0,0,0,0c0.007,0.013,0.012,0.027,0.015,0.041
					l0,0.001l0,0c0.003,0.017,0.003,0.035,0,0.053c-0.077,0.368-0.497,2.209-1.143,2.361
					C251.285,377.999,251.254,378.004,251.221,378.004z M252.103,375.952c-0.449,0.378-1.085,0.995-1.14,1.416
					c-0.012,0.091,0.005,0.165,0.053,0.225c0.129,0.163,0.209,0.144,0.235,0.138C251.554,377.659,251.899,376.744,252.103,375.952z
					 M251.206,375.556c-0.228,0-0.45,0.034-0.616,0.13c-0.139,0.081-0.224,0.198-0.258,0.36c-0.016,0.075-0.034,0.208,0.025,0.248
					c0.192,0.131,0.95-0.21,1.638-0.637C251.785,375.609,251.49,375.556,251.206,375.556z"/>
			</g>
			<polygon style="opacity:0.2;enable-background:new    ;" points="249.053,371.358 251.441,367.931 247.907,364.526 
				244.588,367.629 			"/>
			<polygon style="fill:#E4897B;" points="230.082,379.425 233.856,379.425 234.476,374.169 235.037,369.347 230.556,368.618 
				230.303,374.339 			"/>
			<path style="fill:#263238;" d="M234.665,379.183c-0.01-0.416-5.122-0.09-5.122-0.09s-3.145,3.199-6.201,3.918
				c-3.055,0.719-1.348,2.552,2.067,2.552c3.415,0,6.021,0,8.447,0S234.766,383.496,234.665,379.183z"/>
			<g>
				<path style="fill:#407BFF;" d="M226.853,380.401c-0.187,0-0.345-0.035-0.451-0.123c-0.099-0.081-0.201-0.242-0.124-0.545
					c0.037-0.147,0.129-0.263,0.273-0.346c0.271-0.155,0.715-0.167,1.146-0.125c-0.415-0.222-0.78-0.492-0.795-0.76
					c-0.01-0.175,0.103-0.319,0.336-0.43c0.219-0.102,0.441-0.11,0.661-0.018c0.69,0.287,1.119,1.471,1.141,1.532
					c0.006,0.017,0.009,0.035,0.008,0.054l0,0c0,0.001,0,0.001,0,0.001l0,0.001l0,0c-0.001,0.015-0.004,0.029-0.01,0.042l0,0l0,0
					c-0.006,0.014-0.014,0.026-0.023,0.037l0,0l0,0c-0.012,0.013-0.026,0.024-0.043,0.032
					C228.703,379.882,227.567,380.401,226.853,380.401z M227.288,379.51c-0.245,0-0.461,0.031-0.603,0.112
					c-0.079,0.046-0.127,0.104-0.146,0.179c-0.051,0.2,0.013,0.253,0.034,0.27c0.241,0.198,1.177-0.084,1.931-0.403
					C228.151,379.59,227.682,379.51,227.288,379.51z M227.589,378.26c-0.078,0-0.156,0.019-0.235,0.057
					c-0.07,0.033-0.187,0.099-0.183,0.171c0.013,0.23,0.744,0.627,1.501,0.915c-0.16-0.351-0.476-0.932-0.877-1.099
					C227.726,378.275,227.658,378.26,227.589,378.26z"/>
			</g>
			<polygon style="opacity:0.2;enable-background:new    ;" points="230.303,374.456 234.476,374.273 235.037,369.398 
				230.556,368.644 			"/>
			<path style="fill:#263238;" d="M220.658,288.613c0,0-11.153,26.363-12.906,37.933c-1.753,11.569,37.87,42.586,37.87,42.586
				l4.051-4.311c0,0-29.475-30.3-29.475-35.512s11.496-29.017,11.496-29.017S232.801,290.692,220.658,288.613z"/>
			<path style="opacity:0.4;fill:#FFFFFF;enable-background:new    ;" d="M228.734,354.706c4.049,3.726,7.964,7.09,11.005,9.635
				c3.532,2.949,5.883,4.788,5.883,4.788l4.049-4.308c0,0-4.049-4.157-9.139-9.662c-4.006-4.33-8.665-9.49-12.509-14.11
				c-4.454-5.354-7.824-9.98-7.824-11.738c0-2.75,3.197-10.665,6.217-17.54c2.712-6.157,5.279-11.479,5.279-11.479
				s0.162-1.407-0.318-3.257c-0.776-2.987-3.224-7.133-10.719-8.422c0,0-11.15,26.366-12.903,37.932
				C206.794,332.869,218.198,345.006,228.734,354.706z"/>
			<path style="opacity:0.2;enable-background:new    ;" d="M228.022,341.048l0.712,13.658c4.049,3.726,7.964,7.09,11.005,9.635
				c0.48-2.071,1.035-5.44,0.793-9.182C236.525,350.829,231.867,345.669,228.022,341.048z"/>
			<path style="opacity:0.2;enable-background:new    ;" d="M226.415,311.77c2.712-6.157,5.279-11.479,5.279-11.479
				s0.162-1.407-0.318-3.257c-0.717-0.442-1.267-0.534-1.267-0.534S226.809,301.682,226.415,311.77z"/>
			<path style="fill:#263238;" d="M229.949,296.501l-0.726,37.123v37.989h6.429c15.097-71.985,4.745-90.029,4.745-90.029
				l-0.038,0.01c-0.011-0.027-0.022-0.063-0.032-0.084c-2.426-5.392-18.332-1.417-18.332-1.417
				c-1.143,4.47-1.875,13.542-1.875,13.542L229.949,296.501z"/>
			<path style="opacity:0.4;fill:#FFFFFF;enable-background:new    ;" d="M229.949,296.501l-0.726,37.123v37.989h6.429
				c15.097-71.985,4.745-90.029,4.745-90.029l-0.038,0.01c-0.011-0.027-0.022-0.063-0.032-0.084
				c-2.426-5.392-18.332-1.417-18.332-1.417c-1.143,4.47-1.875,13.542-1.875,13.542L229.949,296.501z"/>
			<polygon style="fill:#263238;" points="240.383,278.805 240.383,281.501 221.969,280.089 221.969,276.9 			"/>
			
				<rect x="234.186" y="277.691" transform="matrix(-0.9987 -0.051 0.051 -0.9987 454.7124 571.634)" style="fill:#263238;" width="0.914" height="4.659"/>
			
				<rect x="226.185" y="277.732" transform="matrix(-0.996 -0.0892 0.0892 -0.996 430.5933 577.7715)" style="fill:#FFFFFF;" width="4.043" height="3.066"/>
			
				<rect x="222.936" y="276.456" transform="matrix(-0.9987 -0.051 0.051 -0.9987 432.2896 568.5919)" style="fill:#263238;" width="0.914" height="4.659"/>
			
				<rect x="234.186" y="277.691" transform="matrix(-0.9987 -0.051 0.051 -0.9987 454.7124 571.634)" style="opacity:0.4;fill:#FFFFFF;enable-background:new    ;" width="0.914" height="4.659"/>
			
				<rect x="222.936" y="276.456" transform="matrix(-0.9987 -0.051 0.051 -0.9987 432.2896 568.5919)" style="opacity:0.4;fill:#FFFFFF;enable-background:new    ;" width="0.914" height="4.659"/>
			<path style="fill:#407BFF;" d="M221.994,277.222l18.419,1.594c0.437-6.848,0.874-11.264,4.928-23.465
				c0.35-1.068,0.733-2.2,1.148-3.397c-2.502-0.798-5.052-1.413-7.64-1.844c-2.734-0.485-5.5-0.776-8.271-0.874
				c-3.586-0.027-7.7,0.378-7.7,0.378s-0.588,0.14-0.954,3.936C221.584,257.119,221.255,264.249,221.994,277.222z"/>
			<path style="fill:#E4897B;" d="M232.097,253.306c4.539-0.581,5.903-2.52,5.903-2.52c-2.88-2.718-0.487-7.426-0.487-7.426
				l-5.464,1.02c0.144,0.903,0.205,1.66,0.214,2.3c0.041,3.316-1.458,3.349-1.458,3.349
				C229.845,251.825,232.097,253.306,232.097,253.306z"/>
			<path style="opacity:0.2;enable-background:new    ;" d="M232.049,244.379c0.144,0.903,0.205,1.66,0.214,2.3
				c2.634-0.611,5.25-3.32,5.25-3.32L232.049,244.379z"/>
			<g>
				<path style="fill:#E4897B;" d="M236.92,229.258c-4.629-1.097-6.706,1.028-8.175,5.717c-1.836,5.86-1.518,10.408,4.571,10.507
					C241.585,245.616,244.607,231.079,236.92,229.258z"/>
				<path style="fill:#DE5753;" d="M231.798,235.426c0,0-0.928,1.057-1.802,1.6c0,0,0.247,0.723,1.096,0.813L231.798,235.426z"/>
				<g>
					<path style="fill:#263238;" d="M234.721,235.719c-0.099,0.378,0.025,0.738,0.277,0.804c0.252,0.066,0.537-0.187,0.636-0.565
						s-0.025-0.738-0.277-0.804C235.105,235.087,234.82,235.34,234.721,235.719z"/>
					<path style="fill:#263238;" d="M235.457,235.199l-0.738-0.538C234.719,234.661,234.947,235.46,235.457,235.199z"/>
				</g>
				<g>
					<path style="fill:#263238;" d="M230.041,234.409c-0.099,0.378,0.025,0.738,0.277,0.804c0.252,0.066,0.537-0.187,0.636-0.565
						s-0.025-0.738-0.277-0.804C230.425,233.778,230.14,234.031,230.041,234.409z"/>
					<path style="fill:#263238;" d="M230.777,233.89l-0.738-0.538C230.039,233.352,230.268,234.151,230.777,233.89z"/>
				</g>
				
					<path style="fill:none;stroke:#263238;stroke-width:0.7247;stroke-linecap:round;stroke-linejoin:round;stroke-miterlimit:10;" d="
					M235.525,232.533c0,0,1.341,0.139,1.842,1.175"/>
				
					<path style="fill:none;stroke:#263238;stroke-width:0.7247;stroke-linecap:round;stroke-linejoin:round;stroke-miterlimit:10;" d="
					M232.207,231.54c0,0-0.746-0.496-1.935-0.057"/>
				<g>
					<path style="fill:#263238;" d="M231.336,239.236c0.135,0.621,0.159,1.735,0.159,1.735c0.101,0.016,0.203,0.032,0.305,0.043
						c1.38,0.183,2.08-0.188,2.438-0.654c0.195-0.256,0.285-0.545,0.326-0.784c0.051-0.277,0.024-0.485,0.024-0.485
						c-0.789,0.34-2.089,0.268-2.781,0.201C231.517,239.266,231.336,239.236,231.336,239.236z"/>
					<path style="fill:#FFFFFF;" d="M231.807,239.291l0.06,0.511c1.3,0.169,2.238,0.114,2.697-0.226
						c0.051-0.277,0.024-0.485,0.024-0.485C233.799,239.43,232.499,239.358,231.807,239.291z"/>
					<path style="fill:#DE5753;" d="M231.799,241.014c1.38,0.183,2.08-0.188,2.438-0.654c-0.473-0.044-1.047-0.045-1.572,0.1
						C232.264,240.57,231.992,240.785,231.799,241.014z"/>
				</g>
				<path style="fill:#263238;" d="M240.13,238.258c0,0-1.263-4.316-0.239-7.174c0,0-8.284-5.921-10.943,3.282
					c0,0,1.063-8.479,9.063-6.778c7.988,1.699,5.208,13.334,0.277,15.828C238.287,243.416,240.905,240.953,240.13,238.258z"/>
				<path style="fill:#E4897B;" d="M239.142,239.055c0.207-0.738,1.275-1.817,2.625-1.337c1.397,0.496,1.383,3.603-2.352,3.465
					C238.879,241.164,238.709,240.595,239.142,239.055z"/>
			</g>
			<polygon style="fill:#407BFF;" points="236.462,370.701 228.561,369.544 229.223,372.701 235.743,373.58 			"/>
			<polygon style="fill:#407BFF;" points="249.67,363.367 244.37,369.129 247.02,370.646 251.11,366.306 			"/>
			<g>
				<g>
					<path style="fill:#263238;" d="M238.802,228.937c-0.137,0.478,0.01,0.939,0.328,1.031c0.319,0.091,0.688-0.222,0.825-0.699
						c0.137-0.478-0.01-0.939-0.328-1.031C239.309,228.146,238.939,228.459,238.802,228.937z"/>
					<path style="fill:#263238;" d="M239.754,228.298l-0.922-0.706C238.832,227.593,239.098,228.615,239.754,228.298z"/>
				</g>
				<g>
					<path style="fill:#263238;" d="M232.892,227.131c-0.137,0.478,0.01,0.939,0.328,1.031c0.319,0.091,0.688-0.222,0.825-0.699
						c0.137-0.478-0.01-0.939-0.328-1.031C233.398,226.341,233.029,226.654,232.892,227.131z"/>
					<path style="fill:#263238;" d="M233.843,226.493l-0.922-0.706C232.921,225.787,233.187,226.81,233.843,226.493z"/>
				</g>
				<path style="fill:#407BFF;" d="M231.164,224.857c0,0,1.382-0.268,3.679,0.979l0.004-0.009c0,0,1.168-0.221,2.131,0.59
					c0.737,0.109,2.45,0.466,4.329,1.569l0.691,5.95l-0.081,0.511l-0.87-5.424c-0.578,1.102-1.916,2.715-3.463,2.132
					c-2.059-0.775-1.575-2.956-1.253-3.959c-0.365-0.593-1.203-0.801-1.437-0.43c-0.319,0.885-1.236,2.892-3.442,2.415
					C229.22,228.698,231.164,224.857,231.164,224.857z"/>
				<path style="opacity:0.2;enable-background:new    ;" d="M231.164,224.857c0,0,1.382-0.268,3.679,0.979l0.004-0.009
					c0,0,1.168-0.221,2.131,0.59c0.737,0.109,2.45,0.466,4.329,1.569l0.691,5.95l-0.081,0.511l-0.87-5.424
					c-0.578,1.102-1.916,2.715-3.463,2.132c-2.059-0.775-1.575-2.956-1.253-3.959c-0.365-0.593-1.203-0.801-1.437-0.43
					c-0.319,0.885-1.236,2.892-3.442,2.415C229.22,228.698,231.164,224.857,231.164,224.857z"/>
				<g style="opacity:0.3;">
					<path style="fill:#FFFFFF;" d="M231.912,225.28l0.387,3.606c0,0-1.389,0.232-1.576-0.881c-0.186-1.113,0.548-2.827,0.548-2.827
						S231.681,225.172,231.912,225.28z"/>
					<path style="fill:#FFFFFF;" d="M232.222,225.298l0.374,3.635c0,0,0.62-0.088,0.663-0.312l-0.294-3.102
						C232.964,225.518,232.436,225.354,232.222,225.298z"/>
					<path style="fill:#FFFFFF;" d="M237.72,227.076l0.387,3.606c0,0-1.389,0.232-1.576-0.881c-0.186-1.113,0.547-2.827,0.547-2.827
						S237.488,226.968,237.72,227.076z"/>
					<path style="fill:#FFFFFF;" d="M238.029,227.094l0.374,3.635c0,0,0.62-0.088,0.663-0.312l-0.294-3.102
						C238.772,227.314,238.243,227.149,238.029,227.094z"/>
				</g>
			</g>
			<g>
				<path style="opacity:0.3;enable-background:new    ;" d="M246.49,251.95c-0.42,1.2-0.8,2.33-1.15,3.4
					c-1.08,3.27-1.91,5.98-2.55,8.32c-1.74,6.42-2.06,10.14-2.38,15.15l-18.42-1.6c-0.45-7.93-0.5-13.67-0.39-17.76
					c0.06-2.6,0.19-4.52,0.32-5.91c0.37-3.8,0.96-3.94,0.96-3.94s1.09-0.11,2.63-0.2c0.45-0.03,0.94-0.06,1.45-0.08
					c1.15-0.06,2.41-0.1,3.62-0.09c2.77,0.09,5.54,0.38,8.27,0.87c1.04,0.17,2.07,0.37,3.09,0.62c0.69,0.14,1.37,0.31,2.05,0.5
					C244.83,251.45,245.66,251.69,246.49,251.95z"/>
				<path style="fill:#E4897B;" d="M241.94,250.73c-2.45,2.99-8.31,9.31-12.99,7.79c-4.4-1.43-3.07-6.49-1.99-9.19
					c1.15-0.06,2.41-0.1,3.62-0.09c2.77,0.09,5.54,0.38,8.27,0.87C239.89,250.28,240.92,250.48,241.94,250.73z"/>
				<path style="fill:#E4897B;" d="M246.49,251.95c-0.42,1.2-0.8,2.33-1.15,3.4c-1.08,3.27-1.91,5.98-2.55,8.32
					c-2.27-4.04-0.01-9.88,1.2-12.44C244.83,251.45,245.66,251.69,246.49,251.95z"/>
				<path style="fill:#E4897B;" d="M225.51,249.41c-0.78,2.13-2.54,6.95-3.91,10.05c0.06-2.6,0.19-4.52,0.32-5.91
					c0.37-3.8,0.96-3.94,0.96-3.94S223.97,249.5,225.51,249.41z"/>
			</g>
			<path style="fill:#E4897B;" d="M246.49,251.95c3.092,0.929,12.191,2.079,13.971,1.356c1.78-0.723,15.33-12.118,15.33-12.118
				l1.582,2.171c0,0-13.055,14.424-14.736,14.791c-1.681,0.367-18.591,0-18.591,0L246.49,251.95z"/>
			<path style="opacity:0.2;enable-background:new    ;" d="M244.41,258.222l2.306-1.486c0,0-3.273-1.726-4.835,1.577
				c-1.562,3.302,0.812,5.716,0.812,5.716L244.41,258.222z"/>
			<path style="fill:#E4897B;" d="M275.791,243.359c0,0-1.187-2.471-0.923-3.283c0.264-0.812,6.593-3.438,8.176-3.444
				c1.582-0.006,1.995,3.818,0.997,5.269C283.044,243.352,276.892,244.609,275.791,243.359z"/>
		</g>
		<g id="_x3C_Group_x3E__168_">
			<path style="fill:#EBB376;" d="M236.925,297.77c0,0-12.861,7.107-13.748,7.246c-0.887,0.138-14.527-9.122-14.527-9.122
				l-3.103,3.43c0,0,12.399,10.146,15.32,11.452c2.921,1.305,16.599-4.045,16.599-4.045L236.925,297.77z"/>
			<path style="opacity:0.2;enable-background:new    ;" d="M236.925,297.77c0,0-12.861,7.107-13.748,7.246
				c-0.887,0.138-14.527-9.122-14.527-9.122l-3.103,3.43c0,0,12.399,10.146,15.32,11.452c2.921,1.305,16.599-4.045,16.599-4.045
				L236.925,297.77z"/>
			<path style="fill:#EBB376;" d="M247.834,293.534c1.611-0.52,2.436-1.463,2.786-2.611c0.239-0.784,0.255-1.66,0.16-2.558
				c-0.045-0.472-0.129-0.949-0.225-1.42l7.367-5.762c-0.888,3.699-1.915,10.486,0.584,13.085
				C252.672,298.013,247.834,293.534,247.834,293.534z"/>
			<path style="opacity:0.2;enable-background:new    ;" d="M256.28,284.765c-0.179,4.516-3.852,5.857-5.659,6.158
				c0.238-0.784,0.254-1.66,0.159-2.558L256.28,284.765z"/>
			<g>
				<path style="fill:#263238;" d="M245.296,269.224c0,0-2.41,6.679,0.721,10.051c3.131,3.372,5.668-9.447,5.668-9.447
					L245.296,269.224z"/>
				<path style="fill:#EBB376;" d="M255.544,286.848c-2.278,2.198-5.302,2.293-7.656,1.001c-1.514-0.828-2.748-2.235-3.332-4.022
					c-0.079-0.234-0.143-0.478-0.2-0.727c-0.966-4.564-0.081-12.038,4.914-13.916c3.553-1.364,7.548,0.411,8.911,3.97
					c0.395,1.009,0.535,2.101,0.427,3.183C258.182,281.365,258.168,284.341,255.544,286.848z"/>
				<path style="fill:#263238;" d="M250.917,277.546c0.018,0.408-0.234,0.737-0.507,0.729c-0.273-0.008-0.476-0.349-0.467-0.758
					c0.008-0.409,0.24-0.737,0.507-0.729C250.715,276.796,250.924,277.131,250.917,277.546z"/>
				<path style="fill:#263238;" d="M246.274,277.424c0.018,0.408-0.24,0.737-0.507,0.729c-0.266-0.008-0.476-0.349-0.467-0.758
					c0.008-0.409,0.24-0.737,0.507-0.729C246.073,276.674,246.283,277.035,246.274,277.424z"/>
				<path style="fill:#D58745;" d="M247.744,277.665c-0.522,1.243-1.213,2.408-2.054,3.462c0.56,0.423,1.279,0.577,1.964,0.42
					L247.744,277.665z"/>
				<path style="fill:#263238;" d="M252.396,276.081c-0.089,0.01-0.178-0.028-0.231-0.1c-0.345-0.507-0.909-0.822-1.522-0.848
					c-0.132,0.006-0.244-0.096-0.251-0.229c-0.006-0.132,0.096-0.244,0.229-0.25c0,0,0.001,0,0.001,0
					c0.776,0.014,1.496,0.403,1.933,1.044c0.08,0.105,0.06,0.256-0.046,0.336c-0.001,0.001-0.003,0.002-0.005,0.003
					C252.471,276.057,252.435,276.072,252.396,276.081z"/>
				<path style="fill:#263238;" d="M244.321,275.771c-0.046,0.017-0.095,0.019-0.142,0.006c-0.119-0.059-0.167-0.203-0.107-0.322
					c0.001-0.002,0.001-0.003,0.002-0.005c0.342-0.699,1.003-1.187,1.772-1.309c0.132-0.013,0.249,0.083,0.262,0.215l0,0
					c0.01,0.131-0.085,0.246-0.216,0.262l0,0c-0.604,0.114-1.118,0.507-1.387,1.059C244.46,275.735,244.393,275.769,244.321,275.771
					z"/>
				<path style="fill:#263238;" d="M255.074,269.948l-0.435,2.198c0.699,0.441,1.077,1.295,0.677,2.143
					c-0.854,1.813-0.01,4.784,1.336,6.044c0,0,0.104-0.805,0.772-0.563c0.668,0.242,0.168,4.437-1.311,6.346
					c0,0,2.146-1.667,3.61-6.001c1.353-4.008,1.736-7.404,1.014-9.047L255.074,269.948z"/>
				<path style="fill:#263238;" d="M245.689,271.044c0,0-2.068-2.44-0.39-4.549c1.678-2.11,5.89-3.758,6.257-2.637
					c0.367,1.121-1.026,1.583,0,1.78c1.026,0.198,3.217-0.989,5.22-0.791c2.003,0.198,0.511,0.791,1.587,1.582
					s2.658,0.791,3.779,1.517c1.121,0.725-0.725,2.003-0.725,2.003s2.571,0.041,2.571,1.689c0,1.648-2.895,1.385-2.895,1.385
					s1.746,1.263,1.364,2.346c-0.382,1.082-6.753-0.933-7.82-3.222C254.639,272.146,247.368,273.154,245.689,271.044z"/>
				<g>
					<g>
						<path style="fill:#263238;" d="M251.398,277.908c-0.042,0.495,0.191,0.919,0.521,0.948s0.632-0.35,0.674-0.846
							c0.042-0.495-0.191-0.92-0.521-0.948C251.742,277.034,251.44,277.413,251.398,277.908z"/>
						<path style="fill:#263238;" d="M252.208,277.098l-1.041-0.514C251.167,276.583,251.626,277.535,252.208,277.098z"/>
					</g>
					<g>
						<path style="fill:#263238;" d="M245.25,277.279c-0.042,0.495,0.191,0.919,0.521,0.948c0.33,0.028,0.632-0.35,0.674-0.846
							c0.042-0.495-0.191-0.92-0.521-0.948C245.594,276.405,245.292,276.783,245.25,277.279z"/>
						<path style="fill:#263238;" d="M246.06,276.469l-1.041-0.514C245.019,275.954,245.478,276.906,246.06,276.469z"/>
					</g>
					<path style="fill:#407BFF;" d="M243.115,275.38c0,0,1.304-0.53,3.799,0.25l0.003-0.009c0,0,1.103-0.442,2.205,0.167
						c0.745-0.035,2.494-0.016,4.551,0.703l4.765,1.609l0.019,0.517l-4.838-1.058c-0.354,1.192-1.355,3.034-2.986,2.761
						c-2.17-0.363-2.117-2.596-1.995-3.643c-0.473-0.511-1.335-0.553-1.493-0.145c-0.142,0.93-0.654,3.076-2.911,3.035
						C241.95,279.525,243.115,275.38,243.115,275.38z"/>
					<path style="opacity:0.2;enable-background:new    ;" d="M243.115,275.38c0,0,1.304-0.53,3.799,0.25l0.003-0.009
						c0,0,1.103-0.442,2.205,0.167c0.745-0.035,2.494-0.016,4.551,0.703l4.765,1.609l0.019,0.517l-4.838-1.058
						c-0.354,1.192-1.355,3.034-2.986,2.761c-2.17-0.363-2.117-2.596-1.995-3.643c-0.473-0.511-1.335-0.553-1.493-0.145
						c-0.142,0.93-0.654,3.076-2.911,3.035C241.95,279.525,243.115,275.38,243.115,275.38z"/>
					<g style="opacity:0.3;">
						<path style="fill:#FFFFFF;" d="M243.931,275.651l1.076,3.463c0,0-1.318,0.497-1.716-0.56
							c-0.398-1.056-0.009-2.879-0.009-2.879S243.683,275.591,243.931,275.651z"/>
						<path style="fill:#FFFFFF;" d="M244.238,275.609l1.07,3.494c0,0,0.592-0.206,0.59-0.434l-0.888-2.987
							C245.009,275.682,244.459,275.622,244.238,275.609z"/>
						<path style="fill:#FFFFFF;" d="M249.976,276.291l1.076,3.463c0,0-1.318,0.496-1.716-0.56
							c-0.398-1.056-0.009-2.879-0.009-2.879S249.728,276.23,249.976,276.291z"/>
						<path style="fill:#FFFFFF;" d="M250.283,276.249l1.069,3.495c0,0,0.592-0.206,0.59-0.435l-0.888-2.987
							C251.054,276.322,250.504,276.262,250.283,276.249z"/>
					</g>
				</g>
				<path style="fill:#EBB376;" d="M260.704,280.531c-0.59,1.126-1.602,1.973-2.815,2.354c-1.609,0.494-2.456-0.938-2.048-2.481
					c0.376-1.368,1.659-3.319,3.294-3.122C260.771,277.479,261.41,279.139,260.704,280.531z"/>
				<g>
					<path style="fill:#263238;" d="M247.713,283.043c0.464,0.75,1.009,2.196,1.009,2.196c0.14-0.026,0.28-0.052,0.418-0.085
						c1.889-0.397,2.634-1.206,2.887-1.981c0.137-0.425,0.121-0.844,0.065-1.177c-0.061-0.385-0.193-0.646-0.193-0.646
						c-0.875,0.809-2.608,1.315-3.544,1.546C247.964,282.999,247.713,283.043,247.713,283.043z"/>
					<path style="fill:#FFFFFF;" d="M248.355,282.898l0.314,0.64c1.778-0.379,2.979-0.884,3.423-1.54
						c-0.061-0.385-0.193-0.646-0.193-0.646C251.024,282.16,249.291,282.666,248.355,282.898z"/>
					<path style="fill:#DE5753;" d="M249.14,285.155c1.889-0.397,2.634-1.206,2.887-1.981c-0.638,0.16-1.39,0.424-2.01,0.857
						C249.542,284.359,249.286,284.767,249.14,285.155z"/>
				</g>
			</g>
			<g>
				<path style="fill:#407BFF;" d="M241.413,295.047c-3.974-0.539-11.748,5.4-11.748,5.4l3.199,9.053l7.391-0.676L241.413,295.047z"
					/>
				<path style="opacity:0.6;fill:#FFFFFF;enable-background:new    ;" d="M240.253,308.823l-0.655,0.06l-6.736,0.62l-1.314-3.718
					l-1.887-5.339c0,0,7.775-5.938,11.752-5.398l-0.561,6.674l-0.417,4.973L240.253,308.823z"/>
				<path style="opacity:0.2;enable-background:new    ;" d="M240.435,306.695c-0.223,0.745-0.502,1.484-0.836,2.188l-6.736,0.62
					l-1.314-3.718c3.015-3.676,9.06-5.075,9.06-5.075c0.107,0.326,0.191,0.664,0.243,1.012
					C241.135,303.288,240.936,305.011,240.435,306.695z"/>
			</g>
			<path style="fill:#407BFF;" d="M265.721,321.559h-31.944c2.425-20.515,7.384-26.545,7.384-26.545s3.148-1.016,7.018-1.775
				c0.183,0.174,0.741,0.384,2.214,0.448c2.141,0.091,5.893-0.641,7.704-1.025C272.281,295.306,265.721,321.559,265.721,321.559z"/>
			<path style="opacity:0.6;fill:#FFFFFF;enable-background:new    ;" d="M266.078,319.93c-0.21,1.025-0.357,1.629-0.357,1.629
				h-31.944c2.425-20.515,7.384-26.545,7.384-26.545s3.148-1.016,7.018-1.775c0.183,0.174,0.741,0.384,2.214,0.448
				c2.141,0.091,5.893-0.641,7.704-1.025c3.99,0.741,6.332,3.349,7.65,6.716C268.402,306.177,266.846,316.078,266.078,319.93z"/>
			<path style="opacity:0.2;enable-background:new    ;" d="M266.078,319.93c-6.936,2.04-17.578-0.394-19.362-7.494
				c-2.763-11.054,11.648-14.531,11.648-14.531c3.001-0.229,5.435,0.238,7.384,1.473
				C268.402,306.177,266.846,316.078,266.078,319.93z"/>
			<path style="fill:#EBB376;" d="M207.697,298.473l0.953-2.579c0,0-8.024-4.515-9.211-3.232c-1.187,1.283-2.242,5.767,0,6.822
				c2.242,1.055,4.976,1.694,6.108,1.227C206.679,300.242,207.697,298.473,207.697,298.473z"/>
			<path style="opacity:0.2;enable-background:new    ;" d="M207.697,298.473l0.953-2.579c0,0-8.024-4.515-9.211-3.232
				c-1.187,1.283-2.242,5.767,0,6.822c2.242,1.055,4.976,1.694,6.108,1.227C206.679,300.242,207.697,298.473,207.697,298.473z"/>
			<path d="M210.113,318.162L210.113,318.162c-0.572,0.236-1.227-0.036-1.464-0.608l-8.276-20.032
				c-0.236-0.572,0.036-1.228,0.608-1.464l0,0c0.572-0.236,1.228,0.036,1.464,0.608l8.276,20.032
				C210.958,317.271,210.685,317.926,210.113,318.162z"/>
		</g>
		<g>
			<path d="M389.861,348.466H96.636c-0.668,0-1.21,0.542-1.21,1.21v42.323c0,0.668,0.541,1.21,1.21,1.21h82.29
				c0.668,0,1.21,0.542,1.21,1.21v3.483c0,0.668,0.542,1.21,1.21,1.21h35.856c0.668,0,1.21-0.542,1.21-1.21v-3.483
				c0-0.668,0.542-1.21,1.21-1.21h35.426c0.668,0,1.21,0.542,1.21,1.21l0,0c0,0.668,0.542,1.21,1.21,1.21h16.139
				c0.668,0,1.21-0.542,1.21-1.21l0,0c0-0.668,0.542-1.21,1.21-1.21h14.776c0.668,0,1.21,0.542,1.21,1.21v1.412
				c0,0.668,0.542,1.21,1.21,1.21h31.23c0.668,0,1.21-0.542,1.21-1.21v-1.412c0-0.668,0.542-1.21,1.21-1.21h62.991
				c0.668,0,1.21-0.542,1.21-1.21v-42.323C391.071,349.008,390.529,348.466,389.861,348.466z"/>
			<g>
				<g>
					<circle style="fill:#263238;" cx="140.617" cy="387.98" r="31.601"/>
					<path style="opacity:0.2;enable-background:new    ;" d="M140.617,412.131c-13.316,0-24.15-10.834-24.15-24.15
						s10.834-24.15,24.15-24.15c13.317,0,24.151,10.834,24.151,24.15S153.934,412.131,140.617,412.131z"/>
					<circle style="opacity:0.6;fill:#FFFFFF;enable-background:new    ;" cx="140.617" cy="387.98" r="21.151"/>
					<path style="opacity:0.6;fill:#FFFFFF;enable-background:new    ;" d="M140.617,406.131c-10.008,0-18.15-8.143-18.15-18.15
						s8.142-18.15,18.15-18.15s18.151,8.143,18.151,18.15S150.625,406.131,140.617,406.131z"/>
					<path style="opacity:0.2;enable-background:new    ;" d="M140.617,393.131c-2.84,0-5.15-2.311-5.15-5.15
						c0-2.84,2.311-5.15,5.15-5.15c2.84,0,5.151,2.31,5.151,5.15C145.768,390.82,143.457,393.131,140.617,393.131z"/>
					<g style="opacity:0.2;enable-background:new    ;">
						<path d="M137.042,372.371l2.88,8.63c0.23-0.03,0.46-0.04,0.7-0.04c0.24,0,0.47,0.01,0.7,0.04l2.87-8.64
							c-1.15-0.26-2.34-0.4-3.57-0.4S138.192,372.1,137.042,372.371z"/>
						<path d="M140.612,395c-0.24,0-0.47-0.01-0.7-0.04l-2.87,8.64c1.15,0.26,2.34,0.4,3.57,0.4s2.43-0.14,3.58-0.41l-2.88-8.63
							C141.082,394.991,140.852,395,140.612,395z"/>
						<path d="M156.227,384.405l-8.63,2.88c0.03,0.23,0.04,0.46,0.04,0.7c0,0.24-0.01,0.47-0.04,0.7l8.64,2.87
							c0.26-1.15,0.4-2.34,0.4-3.57C156.637,386.756,156.497,385.555,156.227,384.405z"/>
						<path d="M133.597,387.975c0-0.24,0.01-0.47,0.04-0.7l-8.64-2.87c-0.26,1.15-0.4,2.34-0.4,3.57c0,1.23,0.14,2.43,0.41,3.58
							l8.63-2.88C133.607,388.446,133.597,388.216,133.597,387.975z"/>
						<path d="M146.051,383.543l8.139-4.08c-0.629-0.997-1.372-1.937-2.241-2.807c-0.87-0.87-1.817-1.619-2.822-2.241l-4.066,8.139
							c0.184,0.141,0.354,0.297,0.523,0.467C145.754,383.19,145.91,383.36,146.051,383.543z"/>
						<path d="M135.183,392.418l-8.139,4.08c0.629,0.997,1.372,1.937,2.242,2.807c0.87,0.87,1.817,1.619,2.822,2.242l4.066-8.139
							c-0.184-0.141-0.354-0.297-0.523-0.467C135.48,392.771,135.324,392.601,135.183,392.418z"/>
						<path d="M145.577,392.948c-0.169,0.169-0.339,0.325-0.523,0.467l4.08,8.139c0.997-0.629,1.938-1.372,2.807-2.241
							c0.87-0.87,1.619-1.817,2.241-2.822l-8.139-4.066C145.903,392.608,145.747,392.778,145.577,392.948z"/>
						<path d="M129.293,376.649c-0.87,0.87-1.619,1.817-2.241,2.821l8.139,4.066c0.141-0.184,0.297-0.354,0.467-0.523
							c0.17-0.169,0.339-0.325,0.523-0.467l-4.08-8.139C131.103,375.037,130.163,375.779,129.293,376.649z"/>
					</g>
				</g>
				<g>
					<circle style="fill:#263238;" cx="346.926" cy="387.98" r="31.601"/>
					<path style="opacity:0.2;enable-background:new    ;" d="M346.926,412.131c-13.316,0-24.15-10.834-24.15-24.15
						s10.834-24.15,24.15-24.15c13.317,0,24.151,10.834,24.151,24.15S360.243,412.131,346.926,412.131z"/>
					<circle style="opacity:0.6;fill:#FFFFFF;enable-background:new    ;" cx="346.926" cy="387.98" r="21.151"/>
					<path style="opacity:0.6;fill:#FFFFFF;enable-background:new    ;" d="M346.926,406.131c-10.008,0-18.15-8.143-18.15-18.15
						s8.142-18.15,18.15-18.15s18.151,8.143,18.151,18.15S356.934,406.131,346.926,406.131z"/>
					<path style="opacity:0.2;enable-background:new    ;" d="M346.926,393.131c-2.84,0-5.15-2.311-5.15-5.15
						c0-2.84,2.311-5.15,5.15-5.15c2.84,0,5.151,2.31,5.151,5.15C352.077,390.82,349.766,393.131,346.926,393.131z"/>
					<g style="opacity:0.2;enable-background:new    ;">
						<path d="M343.351,372.371l2.88,8.63c0.23-0.03,0.46-0.04,0.7-0.04c0.24,0,0.47,0.01,0.7,0.04l2.87-8.64
							c-1.15-0.26-2.34-0.4-3.57-0.4C345.701,371.96,344.501,372.1,343.351,372.371z"/>
						<path d="M346.921,395c-0.24,0-0.47-0.01-0.7-0.04l-2.87,8.64c1.15,0.26,2.34,0.4,3.57,0.4s2.43-0.14,3.58-0.41l-2.88-8.63
							C347.391,394.991,347.161,395,346.921,395z"/>
						<path d="M362.536,384.405l-8.63,2.88c0.03,0.23,0.04,0.46,0.04,0.7c0,0.24-0.01,0.47-0.04,0.7l8.64,2.87
							c0.26-1.15,0.4-2.34,0.4-3.57C362.946,386.756,362.806,385.555,362.536,384.405z"/>
						<path d="M339.906,387.975c0-0.24,0.01-0.47,0.04-0.7l-8.64-2.87c-0.26,1.15-0.4,2.34-0.4,3.57c0,1.23,0.14,2.43,0.41,3.58
							l8.63-2.88C339.916,388.446,339.906,388.216,339.906,387.975z"/>
						<path d="M352.36,383.543l8.139-4.08c-0.629-0.997-1.372-1.937-2.241-2.807c-0.87-0.87-1.817-1.619-2.822-2.241l-4.066,8.139
							c0.184,0.141,0.354,0.297,0.523,0.467C352.063,383.19,352.219,383.36,352.36,383.543z"/>
						<path d="M341.492,392.418l-8.139,4.08c0.629,0.997,1.372,1.937,2.242,2.807c0.87,0.87,1.817,1.619,2.821,2.242l4.066-8.139
							c-0.184-0.141-0.354-0.297-0.523-0.467C341.789,392.771,341.633,392.601,341.492,392.418z"/>
						<path d="M351.886,392.948c-0.169,0.169-0.339,0.325-0.523,0.467l4.08,8.139c0.997-0.629,1.938-1.372,2.807-2.241
							c0.87-0.87,1.619-1.817,2.241-2.822l-8.139-4.066C352.212,392.608,352.056,392.778,351.886,392.948z"/>
						<path d="M335.602,376.649c-0.87,0.87-1.619,1.817-2.241,2.821l8.139,4.066c0.141-0.184,0.297-0.354,0.467-0.523
							c0.17-0.169,0.339-0.325,0.523-0.467l-4.08-8.139C337.412,375.037,336.472,375.779,335.602,376.649z"/>
					</g>
				</g>
			</g>
			<g>
				<path style="fill:#263238;" d="M259.132,318.23c0,0,4.085-16.629,9.504-19.758c0,0-1.79-1.298,0.527-6.999
					c2.317-5.701,4.496-10.352,8.331-9.193c3.835,1.159,14.471,8.048,0,16.192c0,0,3.017,7.83,3.03,25.277
					s-18.323,36.417-22.21,33.46C254.429,354.253,259.132,318.23,259.132,318.23z"/>
				<g>
					<path style="fill:#263238;" d="M352.21,299.65c-1.76,2.19-1.78,5.23-1.37,7.72c0.4,2.47,1.24,4.4,1.24,4.4l-59.01,7.54V309.1
						c0,0-0.45-6.14,29.71-6.67c0,0,16.8-16.23,20.57-15.83c5.73,0.6,3.58,5.18,3.58,5.18s2.42-0.69,4.43,0
						C353.84,292.64,355.71,295.29,352.21,299.65z"/>
					<path style="opacity:0.2;enable-background:new    ;" d="M352.21,299.65c-1.76,2.19-1.78,5.23-1.37,7.72
						c-11.5,2.05-53.86,4.96-51.71,2.18c2.38-3.07,26.61-2.67,27.99-3.56c1.39-0.89,19.81-14.21,19.81-14.21s2.42-0.69,4.43,0
						C353.84,292.64,355.71,295.29,352.21,299.65z"/>
				</g>
				<path style="fill:#407BFF;" d="M404.08,386.26l-22.21,0.18c-0.8-18.57-16.18-33.44-34.94-33.44
					c-18.98,0-34.47,15.17-34.98,34.02l-136.36,1.12v-0.17c0-19.28-15.68-34.97-34.97-34.97c-12.33,0-23.18,6.41-29.41,16.07
					c-3.53,5.45-5.57,11.94-5.57,18.9c0,0.25,0,0.5,0.01,0.75l-6.81-3.21l-17.16-8.09c0,0-5.15-32.61,9.63-49.92
					c14.78-17.3,70.46-30.16,70.46-30.16s16.23-21.98,26.79-32.72c0.32-0.32,0.63-0.64,0.94-0.94c0.53-0.51,1.24-0.8,1.98-0.8h6.56
					c0.78,0,1.3,0.82,0.95,1.52c-3.14,6.45-15.1,31.81-15.1,44.7h141.89l26.43-9.45c0,0,42.78,8.76,47.7,14.45
					c0.56,0.65,1.05,2.09,1.46,4.13C404.66,334.09,404.08,386.26,404.08,386.26z"/>
				<g>
					<path style="fill:#407BFF;" d="M103.109,318.402c7.568-1.925,5.869,13.829-4.416,22.269c-10.286,8.44-14.344,8.062-15.48,3.24
						C82.077,339.088,88.008,322.243,103.109,318.402z"/>
					<path style="opacity:0.6;fill:#FFFFFF;enable-background:new    ;" d="M103.109,318.402c7.568-1.925,5.869,13.829-4.416,22.269
						c-10.286,8.44-14.344,8.062-15.48,3.24C82.077,339.088,88.008,322.243,103.109,318.402z"/>
					<path style="opacity:0.6;fill:#FFFFFF;enable-background:new    ;" d="M102.504,331.469c-1.351,4.723-4.342,8.009-6.679,7.34
						c-2.337-0.669-3.137-5.039-1.785-9.762c1.351-4.723,4.342-8.009,6.679-7.34C103.057,322.376,103.856,326.747,102.504,331.469z"
						/>
					<path style="opacity:0.6;fill:#FFFFFF;enable-background:new    ;" d="M90.914,338.263c-0.622,2.174-1.999,3.687-3.075,3.379
						c-1.076-0.308-1.444-2.32-0.822-4.494s1.999-3.687,3.075-3.379C91.168,334.076,91.536,336.088,90.914,338.263z"/>
					<path style="opacity:0.2;fill:#FFFFFF;enable-background:new    ;" d="M105.022,328.011c0,0-8.132,9.894-19.758,9.694
						c0,0,5.121-13.782,17.912-18.002C103.176,319.703,107,322.604,105.022,328.011z"/>
				</g>
				<g>
					<path style="fill:#263238;" d="M193.73,265.31c-1.06,1.71-2.16,3.6-3.28,5.58c-5.56,9.79-11.4,21.71-13.16,25.35
						c-0.33,0.67-1.01,1.1-1.77,1.1h-13.75c0,0,16.23-21.98,26.79-32.72h4.78C193.7,264.62,193.92,265,193.73,265.31z"/>
					<path style="opacity:0.2;fill:#FFFFFF;enable-background:new    ;" d="M193.73,265.31c-1.06,1.71-2.16,3.6-3.28,5.58
						c-7.06,6.22-16.72,15.46-25.63,26.45h-3.05c0,0,16.23-21.98,26.79-32.72h4.78C193.7,264.62,193.92,265,193.73,265.31z"/>
				</g>
				<path style="opacity:0.2;enable-background:new    ;" d="M404.08,386.26l-22.21,0.18c-0.8-18.57-16.18-33.44-34.94-33.44
					c-18.98,0-34.47,15.17-34.98,34.02l-136.36,1.12v-0.17c0-19.28-15.68-34.97-34.97-34.97c-12.33,0-23.18,6.41-29.41,16.07
					c-3.53,5.45-5.57,11.94-5.57,18.9c0,0.25,0,0.5,0.01,0.75l-6.81-3.21l-1.66-28.3c0,0,7.65-18.45,36.16-28.5
					c28.52-10.06,248.47-2.91,248.47-2.91s12.33-6.69,19.56-7.57c0.32,1.53,0.6,3.39,0.85,5.52c0.83,7.13,1.31,17.17,1.58,27.12
					C404.28,368.71,404.08,386.26,404.08,386.26z"/>
				<path style="fill:#407BFF;" d="M389.73,371.13l-7.86,15.31c-0.8-18.57-16.18-33.44-34.94-33.44
					c-18.98,0-34.47,15.17-34.98,34.02l-136.36,1.12v-0.17c0-19.28-15.68-34.97-34.97-34.97c-12.33,0-23.18,6.41-29.41,16.07
					l-6.68-5.65c0,0,8.52-21.62,36.09-21.62c27.57,0,39.83,20.86,43,35.84h120.26c0,0,10.53-35.84,43.05-35.84
					C379.44,341.8,389.73,371.13,389.73,371.13z"/>
				<g>
					<path style="fill:#407BFF;" d="M106.54,398.99c0.01,1.73-1.38,3.13-3.1,3.13h-8.57c-1.28,0-2.53-0.42-3.55-1.2l-15.27-11.67
						c-1.02-0.79-1.87-1.76-2.49-2.85c-0.8-1.42-1.24-3.03-1.24-4.7v-13.9c0-0.91,0.21-1.8,0.61-2.6c0.32-0.66,0.76-1.26,1.31-1.76
						l6.82-6.23h16.12l14.03,11.86C106.83,375.75,106.48,392.11,106.54,398.99z"/>
					<path style="opacity:0.2;enable-background:new    ;" d="M90.25,377.17c0,2.93-0.77,5.49-1.94,6.91
						c-0.61,0.75-1.33,1.19-2.11,1.19c-2.24,0-4.06-3.62-4.06-8.1c0-4.47,1.82-8.1,4.06-8.1c0.7,0,1.36,0.36,1.93,0.98
						C89.39,371.42,90.25,374.1,90.25,377.17z"/>
					<path style="opacity:0.2;fill:#FFFFFF;enable-background:new    ;" d="M90.25,377.17c0,2.93-0.77,5.49-1.94,6.91
						c-1.26-1.37-2.11-4.05-2.11-7.12c0-2.92,0.77-5.48,1.93-6.91C89.39,371.42,90.25,374.1,90.25,377.17z"/>
					<path style="opacity:0.1;fill:#FFFFFF;enable-background:new    ;" d="M97.18,357.21l-8.96,7.99H72.93
						c0.32-0.66,0.76-1.26,1.31-1.76l6.82-6.23H97.18z"/>
					<path style="opacity:0.2;enable-background:new    ;" d="M106.54,398.99c0.01,1.73-1.38,3.13-3.1,3.13h-8.57
						c-1.28,0-2.53-0.42-3.55-1.2l-15.27-11.67c-1.02-0.79-1.87-1.76-2.49-2.85h18.21l9.36,7.61c0,0-1.514-15.972,6.662-25.754
						L97.18,357.21l14.03,11.86C106.83,375.75,106.48,392.11,106.54,398.99z"/>
				</g>
				<path style="fill:#407BFF;" d="M381.87,386.44l17.218-32.965h5.032l5.94,3.699c1.706,1.062,2.742,2.929,2.742,4.938v25.155
					c0,1.927-0.954,3.728-2.548,4.811l-6.62,4.498c-0.557,0.378-1.214,0.581-1.887,0.581h-16.52c-1.854,0-3.357-1.503-3.357-3.358
					V386.44z"/>
				<g style="opacity:0.2;enable-background:new    ;">
					<path d="M183.62,378.14c-0.276,0-0.5-0.224-0.5-0.5c0-6.573-6.58-16.053-6.646-16.147c-0.059-0.084-0.09-0.185-0.09-0.287
						c0-39.76,3.706-49.914,3.864-50.327l1.825-8.55c0.058-0.271,0.322-0.436,0.593-0.385c0.27,0.059,0.442,0.324,0.384,0.594
						l-1.846,8.624c-0.059,0.174-3.809,10.545-3.82,49.888c0.842,1.228,6.737,10.055,6.737,16.591
						C184.12,377.916,183.896,378.14,183.62,378.14z"/>
				</g>
				<g>
					<path style="fill:#263238;" d="M185.161,298.473c-1.868,0-3.479,1.297-3.891,3.12c-0.799,3.537-1.78,8.89-0.555,9.465
						c1.202,0.564,7.543,0.691,11.824,0.711c2.209,0.01,4-1.777,4-3.986v-0.605c0-4.807-3.897-8.703-8.703-8.703H185.161z"/>
					<path style="opacity:0.2;enable-background:new    ;" d="M185.161,298.473c-1.868,0-3.479,1.297-3.891,3.12
						c-0.799,3.537-1.78,8.89-0.555,9.465c1.202,0.564,7.543,0.691,11.824,0.711c2.209,0.01,4-1.777,4-3.986v-0.605
						c0-4.807-3.897-8.703-8.703-8.703H185.161z"/>
					<path style="fill:#263238;" d="M205.11,305.12c-1.71,0.74-12.13,0.8-12.13,0.8l-0.24,0.76c-0.33,1.08-1.32,1.81-2.45,1.81
						h-1.27c-1.3,0-2.27-1.19-2-2.46c0.18-0.84,0.39-1.83,0.64-2.89c0.99-4.4,2.45-10.02,3.47-10.73c1.5-1.04,10.68-0.76,13.9,0.67
						c0.48,0.22,0.83,0.46,1,0.72C207.35,295.84,206.82,304.38,205.11,305.12z"/>
					<path style="opacity:0.1;fill:#FFFFFF;enable-background:new    ;" d="M205.03,293.08c0,2.54-0.68,6.13-1.16,8.36
						c-0.26,1.22-1.31,2.1-2.55,2.15l-11.24,0.5c-0.95,0.04-1.81-0.33-2.42-0.95c0.99-4.4,2.45-10.02,3.47-10.73
						C192.63,291.37,201.81,291.65,205.03,293.08z"/>
				</g>
				<g style="opacity:0.2;enable-background:new    ;">
					<path d="M278,378.53c-0.05,0.24-0.26,0.4-0.49,0.4c-0.04,0-0.07,0-0.1-0.01c-0.27-0.05-0.45-0.32-0.39-0.59
						c8.92-43.93,5.3-68.91,5.27-69.16c-0.01-0.02-0.01-0.05-0.01-0.07h1C283.51,310.7,286.71,335.65,278,378.53z"/>
				</g>
				<path style="opacity:0.2;enable-background:new    ;" d="M272.994,328.646h-10.94c-2.486,0-4.501,2.015-4.501,4.501
					c0,2.486,2.015,4.501,4.501,4.501h10.94c2.486,0,4.501-2.015,4.501-4.501C277.495,330.661,275.479,328.646,272.994,328.646z
					 M274.689,335.191h-14.329c-1.129,0-2.044-0.915-2.044-2.044c0-1.129,0.915-2.044,2.044-2.044h14.329
					c1.129,0,2.044,0.915,2.044,2.044C276.732,334.276,275.817,335.191,274.689,335.191z"/>
				<path style="opacity:0.4;enable-background:new    ;" d="M412.802,383.536h-2.25c-1.67,0-3.025-1.354-3.025-3.025v-10.427
					c0-1.67,1.354-3.025,3.025-3.025h2.25V383.536z"/>
				<path style="opacity:0.4;enable-background:new    ;" d="M403.8,350.87c-3.99-1.53-6.98-6.82-7.19-13.22
					c-0.02-0.25-0.02-0.5-0.02-0.75c0-5.85,2.31-10.88,5.63-13.15c0.46,3.92,0.81,8.72,1.07,13.9
					C403.52,341.89,403.67,346.39,403.8,350.87z"/>
				<path style="opacity:0.6;fill:#FFFFFF;enable-background:new    ;" d="M403.8,350.87c-3.99-1.53-6.98-6.82-7.19-13.22h6.68
					C403.52,341.89,403.67,346.39,403.8,350.87z"/>
				<path style="opacity:0.2;fill:#FFFFFF;enable-background:new    ;" d="M166.785,331.103h-6.691
					c-1.102,0-1.995-0.893-1.995-1.995l0,0c0-1.102,0.893-1.995,1.995-1.995h6.691c1.102,0,1.995,0.893,1.995,1.995l0,0
					C168.78,330.21,167.887,331.103,166.785,331.103z"/>
			</g>
		</g>
		<g>
			<path style="fill:#EBB376;" d="M262.459,306.798c0,0-11.858,12.825-14.545,14.557c-2.687,1.732-18.252-11.995-18.252-11.995
				s-8.369-1.945-8.463-2.015c-0.094-0.07,4.031-4.023,6.092-3.984c2.062,0.039,5.257,3.434,5.36,3.437s11.432,9.177,13.292,8.043
				c1.86-1.134,7.722-10.678,7.722-10.678L262.459,306.798z"/>
			<path style="fill:#407BFF;" d="M263.569,294.717c5.662,4.038,1.636,12.394-5.099,19.354l-9.399-6.053
				C249.071,308.019,256.666,289.794,263.569,294.717z"/>
			<path style="opacity:0.6;fill:#FFFFFF;enable-background:new    ;" d="M263.569,294.717c5.662,4.038,1.636,12.394-5.099,19.354
				l-9.399-6.053C249.071,308.019,256.666,289.794,263.569,294.717z"/>
		</g>
	</g>
</g>
</svg>
